<?xml version="1.0" standalone="no"?>
<!DOCTYPE svg PUBLIC "-//W3C//DTD SVG 20010904//EN"
 "http://www.w3.org/TR/2001/REC-SVG-20010904/DTD/svg10.dtd">
<svg version="1.0" xmlns="http://www.w3.org/2000/svg"
 width="1024.000000pt" height="1024.000000pt" viewBox="0 0 1024.000000 1024.000000"
 preserveAspectRatio="xMidYMid meet">
<metadata>
Created by potrace 1.16, written by Peter Selinger 2001-2019
</metadata>
<g transform="translate(0.000000,1024.000000) scale(0.100000,-0.100000)"
fill="#000000" stroke="none">
<path d="M0 5120 l0 -5120 5120 0 5120 0 0 5120 0 5120 -5120 0 -5120 0 0
-5120z m5252 4736 c30 -2 83 -15 119 -30 36 -14 71 -26 77 -26 7 0 25 -19 42
-42 16 -22 30 -37 30 -32 0 5 -7 20 -16 32 -9 13 -14 25 -11 28 7 8 57 -7 57
-17 0 -5 7 -9 15 -9 16 0 95 -74 95 -90 0 -5 6 -10 14 -10 7 0 16 -9 19 -20 3
-11 2 -20 -2 -20 -3 0 -15 -23 -25 -52 -10 -29 -29 -69 -43 -91 -36 -57 -53
-37 -53 64 0 46 -4 79 -10 79 -6 0 -10 -31 -10 -72 0 -60 -4 -76 -22 -95 -12
-13 -25 -23 -29 -23 -4 0 -10 28 -14 61 l-7 62 -19 -53 c-27 -78 -52 -90 -74
-37 l-13 32 -11 -27 c-5 -14 -14 -29 -19 -32 -10 -6 -42 35 -42 53 0 24 -54
125 -85 159 -18 20 -59 50 -92 66 -32 15 -66 32 -75 37 -10 5 -31 9 -47 9 -17
0 -33 5 -36 10 -3 6 -14 10 -23 10 -29 -1 30 -40 60 -40 15 0 30 -4 33 -10 3
-5 15 -10 26 -10 44 0 150 -99 182 -170 8 -19 18 -58 21 -87 6 -47 5 -51 -13
-46 -11 3 -29 16 -42 29 -27 29 -39 30 -39 4 0 -20 -1 -20 -25 -4 -30 20 -44
11 -27 -16 11 -17 10 -20 -7 -20 -11 0 -23 5 -26 10 -3 6 -15 10 -26 10 -11 0
-31 7 -44 16 -23 15 -25 15 -31 0 -8 -22 -36 -20 -79 5 -27 16 -39 18 -49 10
-15 -13 -129 -1 -162 17 -28 15 -124 33 -136 26 -17 -10 33 -33 72 -34 19 0
46 -9 60 -20 14 -11 32 -20 41 -20 18 0 55 -37 46 -46 -3 -3 -20 1 -39 9 -87
38 -105 42 -220 41 -95 -1 -116 2 -107 12 15 18 -54 30 -87 15 -14 -6 -36 -11
-50 -11 -64 0 -175 -61 -212 -118 -13 -20 -8 -19 52 13 36 19 73 35 81 35 9 0
23 4 33 9 63 32 126 38 148 16 14 -13 11 -15 -25 -15 -42 0 -68 -19 -29 -22
39 -2 62 2 96 18 27 13 45 14 98 5 71 -11 96 -24 92 -50 -2 -11 4 -15 17 -14
31 3 96 20 142 37 51 19 388 23 410 5 7 -6 29 -13 50 -15 60 -6 78 -10 90 -17
34 -21 252 -42 319 -30 63 11 88 -1 117 -58 12 -24 33 -50 47 -56 14 -7 19
-13 13 -13 -18 0 -16 -35 1 -49 8 -7 24 -31 36 -53 12 -22 38 -61 59 -87 25
-30 41 -60 44 -86 4 -22 4 -33 0 -25 -3 8 -22 31 -42 51 -45 46 -100 56 -256
47 -56 -3 -61 -5 -76 -35 -9 -17 -23 -43 -32 -57 -10 -14 -17 -30 -17 -37 0
-6 36 -50 80 -97 50 -54 80 -95 80 -108 0 -26 -18 -35 -40 -21 -28 17 -102
-11 -143 -55 -27 -28 -43 -38 -56 -33 -15 5 -22 -3 -37 -41 -17 -45 -17 -47 2
-61 33 -25 106 -12 160 31 26 20 53 36 60 36 6 0 29 -16 50 -35 51 -47 169
-118 188 -113 13 3 13 8 -3 44 -25 55 -78 114 -97 107 -16 -6 -20 22 -4 32 6
3 10 15 10 26 0 21 20 25 37 8 15 -15 51 -2 58 21 3 10 12 21 20 24 10 4 15
21 16 53 1 48 1 48 11 16 6 -18 15 -33 19 -33 5 0 9 -9 9 -20 0 -11 -5 -20
-11 -20 -6 0 -4 -7 5 -15 8 -8 20 -15 26 -15 7 0 25 -13 40 -30 24 -26 35 -30
79 -30 28 0 51 -4 51 -10 0 -5 18 -10 40 -10 22 0 40 -4 40 -10 0 -5 18 -10
40 -10 22 0 40 -4 40 -10 0 -6 28 -10 65 -10 37 0 65 -4 65 -10 0 -5 14 -10
30 -10 17 0 30 -4 30 -10 0 -5 11 -10 25 -10 16 0 25 -6 25 -16 0 -12 7 -15
24 -12 15 3 27 0 30 -8 3 -8 15 -14 26 -14 11 0 20 -4 20 -10 0 -5 18 -10 40
-10 22 0 40 -4 40 -10 0 -5 11 -10 25 -10 14 0 25 -4 25 -10 0 -5 11 -10 25
-10 14 0 25 -4 25 -10 0 -5 7 -10 15 -10 8 0 15 -4 15 -10 0 -5 18 -10 40 -10
22 0 40 -4 40 -10 0 -5 9 -10 20 -10 11 0 20 -4 20 -10 0 -5 8 -10 18 -10 9 0
26 -11 36 -25 14 -19 24 -23 47 -18 18 3 29 1 29 -6 0 -6 7 -11 15 -11 9 0 18
-7 21 -15 4 -8 14 -15 23 -15 9 0 23 -9 31 -20 8 -11 25 -20 37 -20 13 0 23
-4 23 -10 0 -5 9 -10 20 -10 11 0 20 -4 20 -10 0 -5 8 -10 18 -10 10 0 24 -9
32 -20 8 -11 25 -20 37 -20 13 0 23 -4 23 -10 0 -5 5 -10 11 -10 6 0 25 -15
41 -32 17 -18 37 -32 44 -30 8 2 14 -2 14 -8 0 -5 18 -18 40 -27 22 -10 40
-21 40 -25 0 -5 6 -8 13 -8 7 0 19 -9 27 -20 8 -11 21 -20 28 -20 8 0 27 -13
42 -30 15 -16 33 -30 39 -30 6 0 11 -4 11 -10 0 -5 14 -10 30 -10 20 0 30 -5
30 -15 0 -8 5 -15 10 -15 6 0 10 -7 10 -16 0 -18 24 -44 40 -44 7 0 24 -13 38
-28 15 -16 35 -31 45 -35 9 -3 22 -17 28 -31 6 -13 22 -30 35 -37 13 -7 24
-16 24 -21 0 -4 6 -8 13 -8 14 0 67 -43 67 -56 1 -5 26 -31 56 -59 108 -98
149 -140 163 -167 8 -16 18 -28 23 -28 4 0 8 -5 8 -10 0 -14 46 -60 60 -60 7
0 9 -8 5 -20 -4 -12 -2 -20 5 -20 14 0 80 -66 80 -80 0 -17 26 -40 44 -40 9 0
16 -8 16 -20 0 -11 5 -20 10 -20 6 0 10 -9 10 -21 0 -12 14 -34 30 -49 17 -15
30 -33 30 -39 0 -7 7 -14 16 -18 9 -3 14 -13 11 -24 -3 -12 0 -19 9 -19 8 0
14 -9 14 -20 0 -13 7 -20 20 -20 15 0 20 -7 20 -24 0 -16 7 -27 20 -31 22 -7
27 -31 8 -38 -9 -3 -6 -11 10 -24 12 -11 22 -27 22 -34 0 -8 9 -21 20 -29 11
-8 20 -25 20 -37 0 -13 5 -23 10 -23 6 0 10 -9 10 -20 0 -11 5 -20 10 -20 6 0
10 -9 10 -20 0 -11 5 -20 10 -20 6 0 10 -9 10 -20 0 -11 5 -20 11 -20 20 0 39
-29 39 -59 0 -17 5 -31 10 -31 6 0 10 -9 10 -20 0 -11 5 -20 10 -20 6 0 10 -9
10 -20 0 -11 5 -20 10 -20 6 0 10 -9 10 -20 0 -11 5 -20 10 -20 6 0 10 -18 10
-40 0 -22 5 -40 10 -40 6 0 10 -11 10 -25 0 -14 5 -25 10 -25 6 0 10 -9 10
-20 0 -11 5 -20 10 -20 6 0 10 -9 10 -20 0 -11 5 -20 10 -20 6 0 10 -22 10
-50 0 -27 5 -50 10 -50 6 0 10 -11 10 -25 0 -15 6 -25 14 -25 9 0 12 -7 9 -20
-3 -12 1 -22 11 -26 9 -3 16 -17 16 -30 0 -13 5 -24 10 -24 6 0 10 -25 10 -55
0 -30 5 -55 10 -55 6 0 10 -13 10 -30 0 -16 5 -30 10 -30 6 0 10 -18 10 -40 0
-22 5 -40 10 -40 6 0 10 -13 10 -30 0 -16 5 -30 10 -30 6 0 10 -18 10 -40 0
-22 5 -40 10 -40 6 0 10 -9 10 -20 0 -11 -4 -20 -10 -20 -5 0 -10 -11 -10 -25
0 -14 5 -25 10 -25 6 0 10 -25 10 -55 0 -30 5 -55 10 -55 6 0 10 -18 10 -40 0
-22 5 -40 10 -40 6 0 10 -35 10 -85 0 -50 4 -85 10 -85 6 0 10 -50 10 -130 0
-80 4 -130 10 -130 6 0 10 -32 10 -75 0 -43 -4 -75 -10 -75 -6 0 -10 -80 -10
-220 0 -140 -4 -220 -10 -220 -6 0 -10 -32 -10 -75 0 -43 -4 -75 -10 -75 -5 0
-10 -25 -10 -55 0 -30 -4 -55 -10 -55 -5 0 -10 -22 -10 -50 0 -27 -4 -50 -10
-50 -5 0 -10 -11 -10 -25 0 -14 5 -25 10 -25 6 0 10 -9 10 -20 0 -11 -4 -20
-10 -20 -5 0 -10 -22 -10 -50 0 -27 -4 -50 -10 -50 -5 0 -10 -13 -10 -30 0
-16 -4 -30 -10 -30 -5 0 -10 -16 -10 -35 0 -19 -4 -35 -10 -35 -5 0 -10 -13
-10 -29 0 -16 -5 -31 -12 -33 -7 -3 -11 -24 -9 -61 2 -48 -1 -57 -15 -57 -13
0 -15 -6 -10 -30 4 -22 2 -30 -9 -30 -8 0 -15 -9 -15 -20 0 -11 -4 -20 -10
-20 -5 0 -10 -11 -10 -25 0 -14 -4 -25 -10 -25 -5 0 -10 -13 -10 -29 0 -16 -6
-32 -12 -35 -10 -5 -10 -7 0 -12 10 -5 8 -10 -7 -20 -10 -8 -22 -27 -26 -44
-4 -16 -11 -32 -16 -35 -5 -4 -9 -15 -9 -26 0 -10 -5 -19 -11 -19 -6 0 -9 -9
-6 -19 3 -12 -1 -22 -9 -25 -8 -3 -14 -17 -14 -31 0 -27 -58 -157 -72 -163 -4
-2 -8 -10 -8 -18 0 -20 -41 -106 -62 -128 -15 -17 -31 -44 -78 -135 -5 -9 -16
-33 -25 -54 -9 -21 -34 -56 -56 -77 -21 -21 -39 -45 -39 -54 0 -9 -6 -19 -14
-22 -8 -3 -26 -24 -41 -46 -22 -33 -24 -42 -13 -50 9 -6 5 -7 -11 -3 -16 5
-22 3 -19 -5 4 -14 -36 -60 -52 -60 -6 0 -10 -11 -10 -25 0 -17 -6 -25 -17
-25 -17 0 -73 -68 -73 -88 0 -5 -7 -13 -16 -16 -9 -3 -14 -12 -11 -19 2 -7
-12 -25 -33 -41 -21 -15 -44 -39 -51 -52 -7 -13 -16 -24 -21 -24 -15 0 -49
-41 -42 -51 8 -14 -14 -29 -43 -29 -14 0 -23 -6 -23 -15 0 -18 -37 -38 -60
-32 -12 3 -17 0 -13 -8 3 -9 -2 -13 -14 -11 -10 2 -12 1 -5 -1 17 -6 15 -33
-3 -33 -8 0 -15 -4 -15 -10 0 -5 -7 -10 -16 -10 -8 0 -12 -5 -9 -10 10 -17
-23 -60 -40 -54 -9 4 -15 0 -15 -9 0 -17 -59 -67 -78 -67 -7 0 -12 5 -12 11 0
5 -5 7 -10 4 -8 -5 -8 -11 -1 -19 13 -15 4 -26 -21 -26 -10 0 -18 -6 -18 -13
0 -8 -11 -20 -25 -27 -14 -7 -25 -17 -25 -22 0 -4 -18 -15 -40 -24 -22 -9 -40
-20 -40 -24 0 -15 -33 -21 -42 -8 -8 10 -11 10 -15 1 -2 -7 -13 -13 -23 -13
-10 0 -39 -19 -64 -41 -26 -23 -68 -55 -94 -72 -26 -16 -49 -32 -52 -36 -5 -6
-15 -12 -89 -53 -20 -11 -43 -26 -51 -32 -15 -13 -25 -18 -180 -96 -47 -23
-94 -47 -105 -53 -11 -6 -37 -19 -58 -29 -118 -58 -179 -90 -187 -99 -3 -3
-24 -9 -47 -13 -24 -3 -62 -17 -87 -31 -24 -13 -79 -36 -122 -51 -44 -14 -92
-32 -109 -39 -16 -7 -50 -18 -75 -25 -25 -6 -53 -16 -62 -21 -10 -5 -31 -9
-47 -9 -17 0 -33 -4 -36 -10 -3 -5 -21 -10 -40 -10 -19 0 -36 -4 -39 -9 -3 -5
-20 -11 -38 -14 -18 -3 -55 -11 -83 -17 -48 -11 -96 -18 -255 -40 -337 -46
-687 -46 -1005 0 -38 5 -108 14 -155 20 -81 9 -119 16 -227 41 -27 6 -66 13
-88 16 -22 3 -44 9 -50 14 -5 5 -21 9 -36 9 -14 0 -39 4 -55 9 -16 5 -49 14
-74 21 -51 14 -96 28 -125 40 -11 5 -74 25 -140 46 -66 20 -124 40 -130 44 -5
4 -21 10 -35 13 -61 13 -75 18 -116 38 -24 11 -44 25 -44 30 0 5 -7 9 -16 9
-16 0 -270 123 -329 160 -16 10 -36 19 -44 19 -8 1 -29 13 -48 27 -33 25 -59
26 -35 2 7 -7 12 -19 11 -27 0 -11 -2 -12 -6 -3 -5 14 -33 17 -33 3 0 -17 41
-56 46 -45 7 16 45 6 67 -17 18 -19 30 -23 55 -20 7 1 19 -5 28 -14 14 -13 14
-15 0 -15 -9 0 -16 -4 -16 -10 0 -5 4 -10 9 -10 4 0 24 -11 44 -24 21 -15 39
-20 44 -15 6 6 16 2 27 -10 14 -15 22 -17 35 -9 24 15 121 -34 121 -62 0 -25
15 -33 39 -20 15 8 24 6 37 -7 25 -26 63 -43 79 -36 9 3 15 -1 15 -8 0 -8 26
-22 60 -33 33 -10 64 -25 69 -34 6 -11 18 -13 46 -9 31 5 35 4 25 -8 -10 -12
-9 -15 9 -15 11 0 21 -4 21 -10 0 -5 9 -10 19 -10 11 0 23 -5 26 -11 8 -13 6
-15 -22 -23 -17 -6 -23 -3 -23 8 0 10 -9 16 -25 16 -14 0 -25 5 -25 10 0 6
-11 10 -24 10 -13 0 -26 5 -28 12 -2 6 -17 12 -34 14 -49 4 -88 16 -116 35
-14 11 -33 19 -42 19 -9 0 -16 5 -16 10 0 6 -9 10 -19 10 -11 0 -23 5 -27 11
-4 7 -10 7 -16 1 -7 -7 -19 -3 -37 14 -14 13 -31 24 -38 24 -7 0 -13 3 -13 8
0 8 -35 25 -90 43 -19 7 -43 19 -52 27 -10 8 -36 14 -61 14 -41 -1 -46 2 -63
33 -10 19 -24 35 -30 35 -6 0 -19 9 -29 20 -10 11 -28 20 -41 20 -13 0 -26 5
-29 10 -3 6 -22 10 -41 10 -30 0 -34 3 -29 19 7 23 -40 61 -106 86 -21 8 -43
50 -35 64 5 7 18 3 40 -14 18 -14 40 -25 48 -25 8 0 23 -9 32 -19 25 -27 81
-32 96 -8 6 10 10 20 8 21 -2 1 -16 9 -33 17 -41 19 -129 71 -135 80 -6 8
-126 69 -136 69 -3 0 -3 -15 0 -33 8 -43 -1 -51 -33 -28 -14 10 -44 25 -66 32
-40 14 -95 59 -95 77 0 5 -21 27 -48 48 -26 21 -49 42 -50 46 -2 5 -9 8 -15 8
-11 1 -105 80 -137 116 -8 10 -44 48 -80 86 -36 38 -69 80 -73 94 -5 13 -12
24 -17 24 -4 0 -10 9 -13 20 -7 26 5 26 21 0 13 -22 29 -25 52 -10 12 8 7 17
-30 49 -44 39 -70 51 -70 31 0 -5 5 -10 10 -10 6 0 10 -4 10 -9 0 -22 -49 6
-97 55 -28 29 -61 55 -72 59 -11 3 -18 12 -15 19 3 7 -2 16 -10 19 -9 4 -16
12 -16 19 0 7 -14 27 -30 45 -17 18 -30 37 -30 43 0 6 -19 30 -43 54 -24 23
-42 47 -40 52 2 6 -7 26 -20 45 -12 19 -29 49 -36 66 -9 22 -20 33 -35 34 -11
0 -15 3 -8 6 20 8 14 30 -18 56 -17 14 -30 35 -30 46 0 12 -4 21 -10 21 -5 0
-10 11 -10 25 0 14 -4 25 -8 25 -5 0 -14 16 -22 35 -8 19 -17 35 -22 35 -4 0
-8 9 -8 20 0 11 -4 20 -10 20 -5 0 -10 11 -10 25 0 26 -6 35 -47 80 -13 13
-23 33 -23 45 0 11 -4 20 -10 20 -5 0 -10 7 -10 15 0 8 -4 15 -10 15 -5 0 -10
16 -10 35 0 19 -4 35 -10 35 -5 0 -10 14 -10 30 0 17 -4 30 -10 30 -5 0 -10 9
-10 20 0 11 -4 20 -10 20 -5 0 -10 11 -10 25 0 14 -4 25 -10 25 -5 0 -10 23
-10 50 0 28 -4 50 -10 50 -5 0 -10 9 -10 20 0 12 -7 20 -16 20 -12 0 -15 6
-11 21 3 12 0 22 -9 26 -8 3 -14 16 -14 29 0 13 -4 24 -10 24 -5 0 -10 25 -10
55 0 30 -4 55 -10 55 -5 0 -10 18 -10 40 0 22 -4 40 -10 40 -5 0 -10 14 -10
30 0 17 -4 30 -10 30 -5 0 -10 14 -10 30 0 17 -4 30 -10 30 -5 0 -10 18 -10
40 0 22 -4 40 -10 40 -6 0 -10 38 -10 95 0 57 -4 95 -10 95 -6 0 -10 27 -10
60 0 33 -4 60 -10 60 -6 0 -10 43 -10 110 0 67 -4 110 -10 110 -6 0 -10 100
-10 280 0 180 4 280 10 280 6 0 10 43 10 110 0 67 4 110 10 110 6 0 10 28 10
65 0 37 4 65 10 65 6 0 10 42 10 105 0 63 4 105 10 105 6 0 10 18 10 40 0 22
5 40 10 40 6 0 10 16 10 35 0 19 5 35 10 35 6 0 10 16 10 35 0 19 5 35 10 35
6 0 10 18 10 40 0 22 5 40 10 40 6 0 10 27 10 60 0 33 4 60 10 60 6 0 10 14
10 30 0 17 5 30 10 30 6 0 10 14 10 30 0 20 5 30 15 30 9 0 15 9 15 25 0 14 5
25 10 25 6 0 10 23 10 50 0 28 5 50 10 50 6 0 10 11 10 25 0 14 5 25 10 25 6
0 10 11 10 25 0 14 5 25 10 25 6 0 10 9 10 20 0 11 5 20 10 20 6 0 10 20 10
45 0 25 5 45 10 45 6 0 10 9 10 20 0 11 5 20 10 20 6 0 10 9 10 20 0 11 5 20
10 20 6 0 10 9 10 20 0 11 5 20 10 20 6 0 10 14 10 30 0 17 5 30 10 30 6 0 10
9 10 20 0 11 5 20 10 20 6 0 10 9 10 21 0 22 22 49 39 49 6 0 11 13 11 28 0
16 8 34 20 42 11 8 20 21 20 30 0 9 9 22 20 30 11 8 20 25 20 37 0 13 5 23 10
23 6 0 10 9 10 20 0 11 5 20 10 20 6 0 10 9 10 20 0 11 5 20 10 20 6 0 10 9
10 20 0 11 5 20 10 20 6 0 10 11 10 24 0 16 7 27 20 31 13 4 20 15 20 30 0 18
7 26 25 31 14 3 25 12 25 20 0 8 5 14 10 14 6 0 10 9 10 20 0 11 5 20 10 20 6
0 10 7 10 16 0 9 14 29 30 44 17 15 30 34 30 42 0 7 9 20 20 28 11 8 20 20 20
27 0 7 6 13 13 13 8 0 7 4 -3 10 -12 8 -11 10 8 10 18 0 22 6 22 30 0 24 4 30
20 30 32 0 70 44 70 81 0 24 4 30 16 25 15 -6 64 34 64 51 0 5 9 15 20 23 11
8 20 20 20 27 0 7 5 13 10 13 6 0 10 5 10 10 0 11 45 60 55 60 7 0 75 67 75
75 0 13 171 175 185 175 18 0 65 43 65 60 0 5 6 10 13 10 8 0 7 4 -3 11 -12 8
-8 9 15 6 31 -5 54 13 55 46 0 10 8 17 20 17 11 0 20 5 20 10 0 6 12 10 26 10
20 0 24 4 20 18 -4 13 0 18 14 19 12 1 34 16 49 32 16 17 34 31 41 31 15 0 40
25 40 40 0 7 8 9 20 5 16 -5 20 -2 20 19 0 24 3 26 46 26 41 0 45 2 39 20 -5
16 -2 20 19 20 14 0 26 5 26 10 0 6 9 10 20 10 11 0 20 5 20 10 0 6 9 10 20
10 11 0 20 5 20 10 0 6 8 10 18 10 10 0 24 9 32 20 8 11 20 20 27 20 7 0 13 5
13 10 0 6 14 10 30 10 17 0 30 5 30 10 0 6 7 10 16 10 18 0 44 23 44 39 0 6 9
11 20 11 11 0 20 5 20 10 0 6 15 10 33 10 21 0 38 7 47 20 8 11 22 20 32 20
10 0 18 5 18 10 0 6 9 10 20 10 11 0 20 5 20 10 0 6 16 10 35 10 19 0 35 5 35
10 0 6 9 10 20 10 11 0 20 5 20 10 0 6 11 10 25 10 14 0 25 4 25 9 0 13 82 20
97 8 17 -12 43 -66 43 -86 0 -10 -21 -25 -53 -39 -28 -13 -60 -28 -69 -33 -10
-5 -23 -9 -28 -9 -12 0 -40 -14 -190 -92 -179 -94 -218 -116 -262 -145 -24
-16 -81 -51 -128 -78 -83 -48 -200 -123 -210 -135 -3 -3 -41 -32 -85 -65 -44
-32 -82 -62 -85 -65 -3 -3 -30 -25 -60 -50 -133 -109 -395 -368 -483 -480 -16
-19 -41 -51 -57 -70 -25 -31 -191 -251 -245 -327 -11 -15 -28 -44 -39 -63 -10
-19 -33 -57 -51 -85 -68 -105 -146 -252 -213 -405 -11 -25 -32 -72 -47 -105
-34 -75 -79 -195 -112 -300 -14 -44 -29 -89 -33 -100 -5 -11 -11 -31 -15 -45
-7 -26 -20 -75 -35 -125 -10 -34 -67 -253 -80 -305 -21 -85 -62 -412 -81 -641
-15 -182 4 -534 41 -784 5 -33 14 -94 20 -135 7 -41 18 -102 26 -135 9 -33 19
-76 24 -95 5 -19 14 -57 20 -85 15 -61 49 -183 60 -210 4 -11 13 -40 20 -65 7
-25 16 -55 21 -67 21 -53 28 -71 49 -117 12 -27 30 -71 41 -99 11 -28 26 -63
34 -77 7 -14 21 -43 30 -65 22 -52 125 -257 162 -321 15 -27 34 -60 41 -74 7
-14 29 -47 49 -74 30 -41 37 -46 45 -33 5 10 13 17 18 17 14 0 12 -34 -2 -48
-10 -10 -7 -16 10 -28 12 -8 22 -21 22 -28 0 -7 9 -21 20 -31 11 -10 20 -26
20 -35 0 -9 22 -41 50 -71 27 -29 50 -57 50 -60 0 -4 14 -21 30 -39 17 -18 30
-36 30 -41 0 -8 246 -257 286 -288 12 -9 57 -49 100 -88 69 -62 194 -159 302
-235 18 -13 54 -40 80 -60 25 -21 61 -45 79 -53 18 -9 35 -20 38 -24 3 -5 42
-28 87 -51 44 -22 93 -49 107 -59 14 -9 44 -25 66 -35 22 -10 72 -33 110 -52
39 -19 78 -34 88 -34 9 0 17 -4 17 -10 0 -5 7 -10 15 -10 8 0 29 -8 47 -18 18
-10 62 -29 98 -42 36 -12 97 -37 135 -55 39 -18 117 -47 175 -65 58 -19 109
-37 115 -42 5 -4 20 -8 33 -8 13 0 33 -5 44 -11 12 -7 89 -13 182 -15 102 -2
187 -9 231 -19 39 -9 90 -20 115 -25 115 -22 189 -39 215 -50 38 -15 280 -30
486 -30 204 0 346 14 469 45 30 7 84 19 120 25 64 11 121 23 190 40 33 8 299
89 365 112 34 11 55 20 105 41 19 8 46 18 60 22 35 11 124 53 194 92 32 19 61
32 63 29 3 -2 33 11 67 29 34 18 116 61 180 94 65 34 137 74 159 89 23 15 54
33 68 41 14 7 41 26 60 42 19 16 38 29 42 29 4 0 17 9 29 20 12 11 52 40 88
65 37 24 81 60 98 79 17 19 33 32 36 29 5 -5 218 188 315 287 52 52 179 192
284 311 26 29 47 57 47 62 0 5 6 14 13 22 24 25 42 51 62 86 11 19 46 74 78
122 31 48 57 89 57 92 0 3 9 16 20 28 13 13 19 30 16 42 -4 14 1 25 14 33 11
7 20 19 20 27 0 8 7 15 15 15 9 0 12 6 9 15 -4 8 1 17 10 21 9 3 13 11 10 16
-4 6 -3 13 2 17 34 24 126 213 154 314 7 26 17 50 21 53 5 3 9 12 9 20 0 8 9
33 19 57 11 23 22 54 25 70 3 15 9 39 12 55 3 15 10 37 15 50 35 86 45 116 59
182 7 30 16 65 21 78 5 13 9 35 9 50 0 16 4 32 9 38 11 11 23 89 15 97 -10 10
-33 -4 -28 -18 3 -7 -2 -36 -12 -65 -13 -40 -19 -48 -26 -36 -5 9 -5 23 1 34
7 13 7 22 -1 30 -8 8 -8 15 2 27 16 20 21 114 6 133 -7 10 -6 16 4 22 11 7 12
14 2 35 -15 32 -15 45 -2 45 6 0 10 -8 10 -17 0 -9 2 -14 5 -11 3 3 8 81 10
174 3 93 8 177 11 187 3 11 3 54 -1 98 -5 58 -11 79 -21 79 -19 0 -18 15 3 35
13 14 14 21 4 36 -7 12 -9 34 -5 54 5 26 3 35 -7 35 -8 0 -20 9 -27 20 -7 12
-8 20 -2 20 5 0 10 -4 10 -10 0 -14 30 -12 34 3 3 6 7 27 10 45 5 30 4 32 -25
32 -17 0 -40 5 -51 11 -18 10 -20 17 -14 64 4 32 2 56 -4 60 -6 3 -7 17 -4 30
5 21 3 24 -23 22 -27 -2 -28 -1 -28 48 1 28 4 58 9 67 6 13 4 15 -13 11 -12
-3 -21 -13 -21 -23 0 -20 -36 -55 -43 -43 -3 4 -8 25 -12 46 -4 21 -17 45 -31
56 -13 10 -24 24 -24 30 0 8 -11 10 -35 5 -33 -6 -35 -5 -35 20 0 31 -23 44
-45 26 -12 -10 -15 -9 -15 4 0 9 -7 19 -15 22 -8 4 -15 17 -15 30 0 13 -4 24
-10 24 -5 0 -10 -12 -10 -26 0 -14 -4 -23 -10 -19 -5 3 -10 19 -10 35 0 34
-15 47 -36 29 -11 -9 -18 -8 -34 6 -23 20 -25 19 -38 -15 -9 -23 -10 -22 -17
18 -6 40 -9 43 -31 38 -19 -5 -22 -3 -17 11 5 12 2 15 -10 10 -11 -4 -19 2
-26 21 -9 27 -9 27 -10 3 -1 -22 9 -61 29 -116 15 -41 30 -143 29 -201 -1 -79
-25 -221 -41 -241 -7 -8 5 -43 38 -110 90 -188 98 -222 115 -498 6 -104 15
-198 20 -207 5 -9 9 -30 9 -45 0 -16 4 -33 8 -38 5 -6 15 -30 22 -55 7 -25 32
-97 55 -160 23 -63 48 -142 55 -175 6 -33 16 -70 21 -83 12 -30 12 -281 0
-318 -5 -16 -17 -56 -27 -89 -9 -33 -21 -64 -26 -69 -4 -6 -8 -18 -8 -29 0
-11 -5 -17 -12 -14 -16 5 -16 5 17 162 18 88 25 144 21 175 -14 100 -28 186
-36 210 -4 14 -14 45 -21 70 -15 53 -38 92 -49 85 -5 -3 -8 -26 -7 -51 0 -33
-4 -49 -16 -56 -12 -6 -15 -17 -11 -32 5 -20 2 -24 -20 -24 -35 0 -60 31 -97
118 -17 41 -38 84 -45 95 -8 11 -14 25 -14 32 0 16 -78 139 -135 213 -51 66
-84 130 -160 305 -31 72 -63 145 -72 164 -21 47 -58 154 -79 231 -9 36 -23 72
-30 81 -18 20 -28 98 -17 126 8 22 8 22 42 -9 l34 -32 -7 27 c-3 14 -9 55 -12
89 -3 35 -9 79 -14 98 -5 19 -14 58 -21 85 -22 96 -32 116 -53 113 -11 -2 -26
-13 -32 -26 -6 -13 -23 -36 -38 -51 -22 -23 -26 -36 -26 -86 0 -32 4 -84 10
-114 5 -31 14 -94 19 -140 7 -57 19 -98 37 -130 27 -49 36 -77 83 -261 16 -63
40 -158 54 -210 14 -52 32 -135 41 -185 9 -49 21 -107 27 -129 8 -28 7 -46 -1
-67 -9 -22 -10 -33 -1 -43 7 -8 9 -30 5 -58 -4 -26 -2 -48 4 -52 5 -3 7 -26 4
-51 -4 -35 -1 -49 12 -58 16 -12 16 -14 -1 -32 -15 -16 -19 -40 -21 -120 -3
-152 -21 -271 -43 -291 -11 -10 -19 -25 -19 -35 0 -10 -5 -21 -11 -25 -6 -3
-8 -16 -5 -27 3 -13 -7 -43 -27 -80 l-32 -58 27 -24 27 -23 -52 -22 c-29 -13
-72 -36 -95 -52 -43 -30 -44 -30 -80 -14 -23 10 -46 32 -60 56 -12 22 -26 40
-30 40 -12 0 -6 437 7 555 7 61 10 150 7 200 -3 50 -6 105 -7 123 0 17 -3 32
-5 32 -14 0 -47 -103 -49 -153 -2 -46 -12 -76 -50 -153 -42 -86 -47 -101 -43
-146 7 -63 -22 -213 -48 -259 -11 -19 -30 -35 -41 -37 -18 -3 -24 5 -36 45
-17 59 -21 257 -7 338 6 33 13 103 15 155 3 52 9 136 15 185 11 96 16 408 11
745 -2 134 1 215 8 233 16 42 13 95 -10 178 -29 102 -33 133 -20 157 8 15 7
31 -4 62 -10 29 -14 76 -13 151 2 99 4 109 20 109 26 0 89 -33 112 -59 26 -29
33 -27 43 16 8 36 12 38 58 47 28 5 78 10 113 10 63 1 68 4 64 46 -3 27 9 80
18 80 5 0 14 -26 20 -57 18 -88 18 -87 35 -73 8 7 15 21 15 32 0 10 4 16 10
13 5 -3 10 -16 10 -28 -1 -32 11 -90 21 -102 4 -6 11 -46 15 -90 5 -62 17
-104 51 -185 25 -58 50 -114 56 -125 28 -52 61 -127 78 -180 7 -22 19 -47 26
-55 6 -9 19 -31 27 -50 14 -32 15 -33 16 -10 0 15 -5 31 -12 38 -9 9 -9 18 0
37 11 23 17 25 72 25 33 0 76 6 95 14 33 14 34 16 23 46 -9 27 -7 38 11 70 24
43 29 151 10 242 -6 29 -13 63 -15 75 -8 40 -31 25 -58 -38 -14 -33 -26 -67
-26 -75 0 -8 -7 -28 -15 -44 -27 -53 -103 -34 -175 42 -37 39 -49 59 -54 93
-8 63 -61 219 -94 279 -26 45 -39 76 -84 199 -6 15 -14 27 -19 27 -5 0 -9 -12
-9 -27 0 -16 -5 -35 -10 -43 -6 -10 -10 89 -10 290 0 265 2 311 18 354 9 26
22 48 27 47 12 -1 13 -321 2 -430 -9 -82 -1 -146 15 -118 14 25 25 21 84 -29
30 -26 56 -45 58 -43 2 2 -14 33 -35 68 -46 74 -48 84 -15 71 17 -6 26 -5 28
2 6 16 60 -7 115 -49 43 -33 80 -44 69 -20 -3 6 -9 20 -12 30 -4 9 -13 17 -20
17 -8 0 -14 3 -14 8 0 8 -61 72 -134 141 -37 35 -44 46 -34 58 9 11 7 15 -8
19 -16 4 -19 13 -17 52 1 26 3 124 5 217 l3 170 -29 3 c-34 4 -46 -10 -46 -56
0 -35 -15 -72 -29 -72 -5 0 -17 27 -27 60 -25 83 -39 83 -58 0 -12 -54 -14
-102 -9 -217 6 -147 -6 -309 -28 -387 -11 -41 -71 -109 -106 -120 -12 -4 -32
-23 -44 -42 -27 -44 -20 -81 18 -90 l27 -7 -25 -10 c-70 -28 -128 -27 -173 3
-54 37 -70 79 -70 185 l-1 90 62 130 c61 129 93 219 93 260 0 12 9 30 21 41
44 40 61 103 39 145 -13 23 -35 26 -26 3 12 -30 -6 -36 -25 -7 -24 35 -24 39
0 46 14 3 17 11 14 30 -4 19 0 27 16 32 12 3 26 15 32 26 13 25 -8 62 -48 81
-39 19 -41 38 -4 38 16 0 33 4 36 10 7 12 -19 63 -62 119 -42 55 -44 75 -6 60
15 -6 30 -14 33 -18 6 -9 69 -41 81 -41 13 0 21 58 10 78 -6 11 -34 37 -63 58
-29 21 -87 67 -128 104 -98 87 -125 105 -194 130 -40 15 -60 29 -66 46 -10 26
-4 54 13 54 14 0 77 -20 99 -31 10 -5 27 -9 37 -9 11 0 23 -4 26 -10 3 -5 15
-10 26 -10 33 0 65 -23 180 -127 41 -37 69 -54 96 -58 21 -3 62 -13 91 -22 29
-8 55 -14 57 -12 2 2 6 16 10 32 7 24 5 27 -20 27 -29 0 -95 27 -95 40 0 4
-10 11 -23 17 -12 6 -53 36 -92 67 -80 66 -175 115 -237 123 -23 2 -47 8 -53
12 -10 8 -26 12 -125 30 -25 4 -65 15 -90 24 -25 9 -52 17 -61 17 -21 0 -30
52 -14 83 23 46 122 15 237 -74 43 -33 84 -62 93 -65 31 -12 13 19 -42 74 -53
52 -56 57 -35 60 13 2 43 -6 68 -17 24 -12 49 -21 55 -21 11 0 74 -33 165 -87
77 -46 189 -139 219 -183 28 -41 45 -51 45 -27 0 7 -17 29 -37 49 -76 74 -93
93 -93 106 0 7 -7 15 -15 18 -8 4 -15 11 -15 18 -1 6 -38 41 -83 77 -73 59
-87 66 -127 67 -25 0 -74 10 -110 21 -36 11 -77 21 -92 21 -15 0 -30 5 -33 10
-8 14 -108 13 -139 -1 -19 -9 -33 -8 -63 3 -43 17 -70 14 -53 -7 8 -9 4 -19
-15 -36 -13 -13 -25 -29 -25 -35 0 -6 -38 -51 -84 -100 -88 -92 -92 -105 -41
-118 16 -4 25 -13 25 -26 0 -11 2 -20 5 -20 3 0 31 19 62 43 91 69 136 95 167
96 26 1 28 -1 21 -26 -4 -16 -7 -45 -6 -65 2 -44 -33 -104 -66 -113 -13 -3
-23 -10 -23 -15 0 -6 -8 -10 -17 -10 -12 0 -14 -3 -6 -8 7 -4 18 -25 25 -47
10 -29 19 -41 36 -43 13 -2 32 -12 43 -23 10 -10 26 -19 34 -19 9 0 15 -6 14
-12 -1 -7 -1 -30 0 -52 1 -33 3 -37 16 -26 13 10 20 11 39 1 12 -7 43 -14 67
-16 24 -1 48 -3 53 -4 4 0 6 -10 3 -22 -4 -14 5 -35 28 -65 19 -24 37 -61 41
-82 4 -20 10 -41 14 -47 7 -9 10 -26 26 -130 6 -44 -16 -142 -40 -177 -14 -20
-15 -17 -15 48 1 38 5 86 10 107 9 32 6 46 -21 101 -16 35 -30 69 -30 76 0 24
-75 140 -91 140 -9 0 -22 7 -29 15 -14 17 -30 20 -30 5 0 -6 -8 -20 -19 -31
-10 -11 -21 -33 -24 -49 -11 -51 -172 -269 -300 -405 -69 -73 -75 -83 -55
-103 9 -9 1 -22 -37 -56 -67 -62 -95 -72 -147 -55 -60 19 -72 16 -141 -43 -34
-29 -82 -63 -107 -76 -64 -32 -180 -148 -217 -217 -30 -55 48 -31 105 32 42
47 92 84 103 77 24 -14 13 -45 -129 -374 -27 -63 -59 -144 -72 -180 -23 -67
-77 -181 -133 -285 -105 -192 -127 -227 -176 -289 -18 -22 -38 -54 -45 -70 -8
-17 -26 -58 -41 -91 -63 -144 -318 -566 -445 -735 -26 -36 -162 -180 -302
-322 -139 -141 -263 -269 -275 -285 -42 -54 -25 2 43 137 64 129 168 308 325
560 84 136 248 450 268 516 8 23 12 47 9 55 -5 16 -180 -210 -293 -381 -50
-74 -113 -168 -142 -207 -28 -40 -75 -115 -104 -166 -78 -136 -154 -247 -346
-507 -79 -107 -233 -280 -276 -311 -22 -16 -64 -36 -93 -46 l-54 -17 -187 64
c-208 70 -267 96 -369 166 -136 93 -164 119 -363 332 -52 56 -97 100 -99 98
-2 -2 4 -21 12 -41 32 -77 22 -80 -56 -18 -39 32 -94 80 -123 108 -29 27 -71
67 -94 88 -22 21 -48 48 -56 60 -13 20 -75 201 -75 219 0 26 -38 89 -62 103
-35 20 -121 123 -148 176 -23 45 -55 54 -48 14 7 -35 -13 -31 -39 8 -63 95
-104 244 -116 432 -2 31 -5 36 -11 20 -4 -11 -11 -29 -16 -40 -4 -11 -15 -78
-25 -150 -9 -71 -18 -131 -19 -133 -2 -1 -23 -6 -47 -10 -36 -6 -45 -12 -47
-31 -4 -23 -2 -23 43 -17 45 7 46 7 35 -13 -6 -12 -14 -21 -18 -21 -4 0 -28
-21 -54 -46 -46 -44 -61 -74 -37 -74 10 0 78 52 139 107 35 32 48 29 56 -14 4
-20 19 -59 33 -87 28 -53 42 -98 106 -326 21 -74 54 -166 73 -205 56 -113 93
-179 108 -191 8 -6 14 -16 14 -22 0 -5 20 -32 45 -60 l44 -49 -54 -55 c-52
-53 -67 -78 -45 -78 22 0 8 -38 -23 -61 -34 -25 -187 -192 -187 -205 0 -4 12
-18 26 -31 26 -24 54 -25 54 -2 0 12 93 145 140 199 16 19 30 39 30 46 0 22
32 74 61 98 36 31 45 27 127 -42 l52 -44 0 -87 c0 -84 26 -231 41 -231 18 0
27 38 19 76 -12 49 -12 210 0 174 4 -14 8 -47 9 -73 1 -54 21 -57 21 -3 0 39
24 66 42 48 9 -9 9 -24 1 -59 -17 -74 3 -263 28 -263 5 0 9 17 9 38 1 57 12
217 15 220 2 2 18 -10 36 -25 37 -32 47 -38 164 -116 44 -29 88 -56 98 -60 28
-11 20 -23 -30 -45 -126 -53 -363 -100 -450 -89 -195 26 -319 61 -396 113 -60
41 -241 219 -293 288 -63 83 -125 202 -183 347 -69 174 -100 327 -102 497 0
48 -4 110 -8 137 -6 43 -8 33 -15 -77 -11 -164 8 -372 48 -534 15 -62 78 -244
97 -280 12 -24 14 -57 4 -96 -6 -24 -4 -28 14 -28 11 0 21 -6 21 -14 0 -12 -4
-12 -30 0 -16 9 -30 21 -30 27 0 8 -3 8 -11 0 -12 -12 6 -93 21 -93 6 0 10 -4
10 -10 0 -5 -7 -10 -15 -10 -18 0 -19 -12 -4 -27 12 -12 4 -33 -12 -33 -5 0
-9 7 -9 15 0 11 -7 14 -25 9 -29 -7 -32 2 -8 28 15 17 15 20 3 28 -23 15 -34
12 -49 -12 -12 -19 -11 -23 3 -33 8 -7 13 -14 10 -18 -3 -3 4 -25 15 -50 27
-59 27 -80 2 -72 -27 8 -36 -12 -11 -27 25 -16 26 -33 0 -51 -18 -12 -19 -18
-9 -48 11 -36 20 -59 37 -99 19 -45 24 -70 13 -70 -6 0 -11 6 -11 14 0 8 -12
24 -26 35 -16 13 -24 27 -20 36 3 8 1 15 -3 15 -15 0 -52 65 -156 270 -79 154
-145 296 -145 309 0 7 -40 113 -70 186 -12 29 -26 73 -40 125 -6 25 -16 53
-21 62 -5 10 -9 27 -9 38 0 11 -4 28 -9 38 -15 27 -49 169 -61 252 -7 41 -18
104 -25 140 -48 223 -67 597 -45 885 10 130 17 185 56 460 17 124 56 281 95
383 5 13 9 36 9 52 0 16 4 32 10 35 5 3 10 14 10 24 0 10 8 40 19 67 10 27 28
81 40 119 27 85 85 240 119 315 13 30 31 71 39 90 28 65 146 295 184 359 22
34 39 65 39 67 0 14 174 264 239 343 42 51 105 130 140 175 74 93 317 337 410
411 35 28 93 75 130 105 194 161 305 237 451 310 25 13 50 30 56 38 6 9 18 13
28 9 9 -4 16 -2 16 3 0 6 9 10 19 10 10 0 22 7 25 16 4 9 13 14 21 10 8 -3 15
0 15 7 0 12 44 37 66 37 14 0 76 25 209 86 64 29 124 43 134 30 23 -30 82
-148 101 -206 20 -60 22 -83 21 -302 -1 -154 3 -247 10 -265 6 -15 15 -37 20
-48 17 -39 29 -111 29 -173 0 -64 22 -122 45 -122 6 0 16 -5 23 -12 12 -12 16
-9 -86 -92 -33 -27 -75 -59 -95 -70 -200 -119 -449 -323 -542 -445 -33 -43
-68 -84 -78 -90 -10 -6 -68 -18 -130 -26 -182 -23 -407 -85 -544 -150 -61 -29
-78 -45 -48 -45 8 0 15 5 15 10 0 6 7 10 15 10 8 0 23 4 33 9 56 28 136 51
181 51 18 0 41 5 52 11 11 5 30 9 42 7 17 -2 11 -9 -32 -31 -30 -15 -61 -27
-68 -27 -7 0 -21 -4 -31 -9 -9 -5 -30 -14 -47 -21 -115 -47 -180 -93 -249
-173 -53 -63 -69 -107 -38 -107 26 0 172 85 192 112 8 10 59 28 81 28 10 0 19
-7 19 -15 0 -8 5 -15 10 -15 6 0 10 9 10 20 0 11 4 20 8 20 5 0 19 19 32 43
29 53 127 149 176 172 55 26 141 44 207 45 33 0 84 7 114 16 39 11 58 13 66 5
17 -17 1 -24 -75 -31 -127 -10 -239 -85 -371 -245 -61 -74 -99 -165 -70 -165
3 0 29 23 59 51 29 29 67 60 83 70 17 10 49 36 73 59 24 22 68 55 98 72 49 29
64 32 132 33 64 0 81 -4 107 -22 39 -30 58 -29 140 6 82 35 103 39 210 46 l83
5 88 -92 c102 -107 111 -126 120 -283 4 -60 7 -102 8 -93 2 16 23 70 43 110 5
10 9 25 9 34 0 8 7 22 15 30 17 17 18 11 16 -71 -2 -71 11 -75 67 -19 27 27
57 61 67 77 9 15 25 27 35 27 10 0 22 9 25 21 8 25 42 39 79 32 23 -5 27 -2
24 13 -3 17 4 19 52 19 41 0 55 -4 56 -15 2 -30 4 -32 18 -21 12 10 17 8 26
-9 8 -14 17 -19 30 -15 12 4 25 -3 40 -22 15 -20 23 -24 29 -15 6 10 11 9 21
-3 10 -11 16 -13 26 -4 8 6 21 8 31 4 10 -5 41 -9 68 -10 28 -1 61 -6 74 -10
13 -4 28 -2 34 4 14 14 37 14 70 -1 23 -11 26 -17 21 -42 -4 -20 -3 -26 5 -21
7 4 23 4 36 1 22 -6 23 -9 13 -30 -9 -21 -14 -23 -35 -15 -35 13 -53 11 -53
-6 0 -8 6 -15 14 -15 7 0 19 -6 25 -14 20 -24 -17 -38 -40 -15 -10 10 -26 15
-38 12 -26 -7 -26 -7 3 -37 17 -19 34 -26 60 -26 20 0 36 -4 36 -10 0 -5 -4
-10 -10 -10 -5 0 -10 -4 -10 -10 0 -14 79 -49 120 -52 58 -5 65 -33 23 -96
-16 -22 -44 -58 -64 -79 -20 -22 -57 -66 -82 -100 -56 -74 -264 -274 -356
-343 -70 -53 -166 -103 -216 -114 -61 -13 -175 61 -302 198 -117 125 -143 205
-104 325 12 35 18 67 15 72 -7 13 -38 11 -52 -3 -21 -21 -35 42 -41 197 -4 96
-9 139 -14 120 -22 -90 -39 -131 -148 -361 -37 -79 -83 -125 -147 -148 -29
-10 -52 -24 -52 -31 0 -6 13 -30 29 -52 l29 -41 -24 -11 c-13 -6 -36 -16 -51
-22 -82 -34 -88 -38 -166 -109 -61 -55 -71 -74 -55 -99 10 -16 6 -27 -23 -72
-50 -79 -67 -108 -100 -177 -26 -56 -29 -72 -27 -140 3 -76 3 -77 29 -74 23 2
28 -3 37 -40 19 -75 20 -101 6 -141 -16 -47 -10 -78 25 -132 52 -78 71 -156
71 -293 0 -124 8 -182 24 -182 24 0 39 74 39 185 0 105 -2 115 -41 218 -38
101 -41 116 -41 205 0 54 -4 118 -10 143 -21 92 -29 287 -13 329 23 62 151
186 238 230 63 32 76 35 154 35 52 -1 95 -6 110 -15 43 -23 79 -63 86 -95 3
-16 10 -34 14 -40 4 -5 10 -27 14 -47 12 -64 -34 -140 -96 -161 -33 -12 -217
-171 -218 -189 0 -8 43 3 50 12 9 13 80 50 95 50 8 0 15 5 15 10 0 6 8 10 17
10 23 0 -186 -205 -236 -230 -21 -11 -44 -33 -50 -47 -11 -25 -10 -30 10 -46
25 -20 27 -61 8 -163 -14 -69 -6 -134 16 -134 18 0 45 62 45 101 0 75 117 285
219 392 25 27 85 75 133 108 94 64 258 153 266 145 6 -7 -17 -36 -28 -36 -16
0 -157 -85 -227 -138 -167 -124 -287 -307 -308 -471 l-6 -46 21 25 c19 24 50
82 69 134 19 49 82 135 133 181 100 90 184 141 533 320 105 54 217 117 250
141 33 24 103 72 155 108 61 41 115 88 153 133 31 37 66 77 76 88 84 89 391
497 391 520 0 3 46 76 103 163 56 86 109 171 117 187 8 17 26 48 40 70 34 53
50 91 50 120 0 13 5 27 11 31 15 9 5 251 -12 319 -14 57 4 178 43 280 11 28
64 114 78 125 3 3 21 26 38 51 32 44 33 48 37 170 3 116 13 167 36 195 14 17
81 -5 87 -28 2 -10 12 -18 21 -18 9 0 22 -5 29 -12 14 -14 16 -68 4 -68 -11 0
-35 -51 -28 -58 9 -8 36 20 36 37 0 15 42 61 55 61 14 0 2 -34 -21 -60 -32
-36 -54 -76 -54 -101 0 -20 -40 -64 -116 -124 -27 -22 -55 -48 -62 -58 -8 -10
-21 -16 -31 -12 -26 8 -59 -63 -38 -84 22 -22 43 -10 119 71 57 61 80 80 86
70 7 -10 13 -4 26 21 9 19 16 44 16 55 0 11 6 25 14 31 8 7 17 23 20 36 4 14
11 25 16 25 5 0 17 15 26 33 9 17 51 73 93 122 90 105 98 117 77 109 -13 -5
-16 3 -16 49 0 55 -12 81 -24 51 -3 -9 -6 -30 -6 -48 0 -35 -37 -93 -51 -79
-4 4 -10 22 -12 38 -3 18 -5 10 -4 -20 1 -73 -9 -97 -36 -89 -12 3 -33 19 -45
35 -32 40 -82 59 -153 59 -53 0 -59 -2 -63 -22 -10 -50 -18 -105 -21 -149 -2
-26 -8 -56 -14 -67 -6 -11 -11 -29 -11 -39 0 -23 -22 -73 -32 -73 -13 0 -9
259 3 283 16 30 98 129 172 207 116 122 111 115 92 144 -9 14 -14 33 -12 43 3
10 8 32 12 48 l7 30 14 -34 c8 -18 14 -41 14 -51 0 -10 11 -31 24 -47 13 -15
26 -37 29 -48 4 -15 5 -14 6 8 0 15 -3 27 -9 27 -5 0 -10 8 -10 18 0 10 -6 24
-12 30 -10 10 -10 15 2 23 13 8 12 12 -7 28 -17 14 -23 30 -23 59 0 22 -7 53
-15 68 l-15 29 0 -42 c0 -56 -16 -49 -74 31 -58 80 -86 110 -97 99 -4 -4 -9
-30 -11 -58 l-3 -50 -100 -7 c-75 -5 -121 -14 -185 -38 -107 -39 -277 -61
-495 -63 -188 -2 -242 10 -320 73 -85 67 -147 101 -176 95 -17 -4 -29 -1 -33
7 -23 50 -141 221 -170 245 -23 21 -26 21 -26 5 0 -10 4 -22 9 -28 6 -5 13
-40 16 -79 6 -63 5 -68 -8 -52 -14 17 -17 17 -49 -11 -48 -42 -91 -62 -135
-62 -99 0 -252 95 -295 182 -64 130 -65 286 -4 338 12 9 13 16 6 25 -7 9 0 25
25 56 19 24 35 49 35 56 0 22 207 249 218 238 2 -2 -6 -15 -19 -28 -23 -24
-55 -61 -116 -137 -15 -19 -31 -36 -35 -38 -5 -2 -8 -8 -8 -14 0 -5 -11 -24
-25 -42 -14 -18 -25 -38 -25 -44 0 -6 -7 -18 -16 -26 -14 -15 -12 -16 25 -16
26 0 41 5 41 13 0 20 155 14 178 -7 10 -9 24 -16 30 -16 6 0 19 -13 29 -30 19
-33 47 -39 72 -16 19 18 29 12 60 -32 36 -51 92 -75 167 -70 43 3 69 10 83 22
26 24 26 30 1 54 -23 21 -163 92 -182 92 -8 0 -31 -9 -53 -20 -48 -25 -47 -25
-39 4 7 30 -7 39 -40 25 -13 -6 -33 -8 -43 -4 -15 6 -13 9 13 16 23 7 32 15
32 31 0 13 1 30 3 38 3 9 -3 14 -14 14 -14 -2 -16 3 -11 20 3 11 11 26 16 33
7 9 2 20 -16 37 l-27 24 22 36 c17 29 18 36 6 36 -9 0 -18 -6 -21 -12 -5 -10
-7 -10 -12 0 -9 19 -19 15 -71 -33 -26 -25 -51 -45 -55 -45 -17 0 -6 18 32 55
28 27 40 48 40 67 0 17 7 31 20 38 11 6 20 18 20 26 0 9 24 38 53 65 77 72 52
66 -118 -31 -42 -24 -94 -66 -158 -128 -65 -62 -167 -221 -167 -261 -1 -18
-23 -51 -35 -51 -4 0 -5 9 -2 20 3 13 -2 27 -13 38 -20 18 -16 34 11 44 8 3
21 24 28 46 7 21 28 59 47 83 18 24 41 55 51 68 38 51 84 93 97 88 8 -3 41 20
77 54 35 32 69 59 75 59 12 0 126 81 152 107 36 36 -58 -11 -122 -61 -23 -17
-42 -34 -44 -38 -2 -5 -8 -8 -14 -8 -6 0 -32 -19 -60 -41 -79 -67 -65 -38 18
37 42 38 82 74 88 79 6 6 28 19 48 28 45 21 57 37 27 37 -28 0 -139 -60 -217
-118 -92 -69 -219 -202 -252 -263 -35 -67 -54 -76 -44 -23 18 101 189 300 331
384 69 41 94 51 164 60 44 6 90 17 100 23 22 13 21 44 -1 39 -8 -2 -32 -7 -55
-12 -22 -5 -58 -14 -80 -20 -80 -22 -118 -31 -122 -27 -2 3 34 23 79 46 77 38
80 41 48 41 -19 0 -51 -9 -71 -19 -20 -11 -54 -24 -75 -30 -50 -13 -155 -108
-223 -200 -28 -37 -51 -71 -51 -74 0 -4 -13 -28 -30 -54 -16 -26 -30 -55 -30
-65 0 -10 -9 -32 -20 -50 l-20 -33 2 35 c1 20 -6 51 -15 69 -19 38 -24 171 -7
171 6 0 10 20 10 45 0 25 5 45 10 45 6 0 10 11 10 25 0 14 5 25 10 25 6 0 10
14 10 30 0 17 5 30 10 30 6 0 10 9 10 20 0 11 5 20 10 20 6 0 10 7 10 15 0 7
6 18 13 22 7 4 28 28 47 53 61 81 224 234 276 259 56 28 150 96 209 152 27 25
53 40 80 44 104 17 188 36 204 47 22 13 206 -12 266 -37 52 -22 63 -18 26 9
-74 55 -149 64 -334 40 -26 -3 -55 -3 -64 0 -14 6 -12 10 13 23 16 9 39 15 51
15 12 -1 25 3 28 8 3 6 34 10 69 10 37 0 76 6 95 16 20 10 42 13 61 9 41 -9
75 2 60 20 -15 18 17 37 42 24 11 -6 43 -5 87 3 55 9 78 9 113 -1 59 -18 103
-41 134 -69 14 -13 27 -22 30 -19 9 8 -65 74 -103 92 -63 29 -71 39 -37 46 16
3 32 4 36 2 3 -2 31 -5 60 -7z m512 -290 c6 -26 -1 -56 -13 -56 -9 0 -34 -51
-28 -57 5 -5 53 50 60 69 3 9 12 5 29 -12 40 -42 55 -74 62 -125 7 -49 6 -51
-26 -70 -18 -11 -37 -21 -42 -24 -5 -2 -7 35 -4 83 2 47 1 86 -3 86 -4 0 -18
-19 -31 -42 -30 -55 -60 -64 -58 -16 3 48 2 52 -15 38 -25 -21 -19 19 18 123
12 34 43 36 51 3z m-9 -226 c3 -5 -1 -10 -10 -10 -9 0 -13 5 -10 10 3 6 8 10
10 10 2 0 7 -4 10 -10z m150 -112 c-6 -51 -9 -55 -31 -50 -13 2 -24 6 -24 7 0
2 10 29 22 60 26 68 43 60 33 -17z m20 -78 c3 -5 1 -10 -4 -10 -6 0 -11 5 -11
10 0 6 2 10 4 10 3 0 8 -4 11 -10z m-1835 -170 c0 -5 -5 -10 -11 -10 -5 0 -7
5 -4 10 3 6 8 10 11 10 2 0 4 -4 4 -10z m1717 -190 c10 -26 9 -32 -7 -40 -10
-6 -37 -10 -59 -10 -23 0 -41 -3 -41 -7 0 -5 20 -21 44 -38 43 -29 50 -45 21
-45 -24 0 -94 54 -95 73 0 9 5 17 10 17 6 0 10 7 10 15 0 11 70 56 100 64 3 0
11 -13 17 -29z m10 -146 c-3 -3 -12 -4 -19 -1 -8 3 -5 6 6 6 11 1 17 -2 13 -5z
m-1977 -129 c0 -8 -4 -15 -10 -15 -5 0 -10 7 -10 15 0 8 5 15 10 15 6 0 10 -7
10 -15z m1687 -62 c-2 -1 -15 3 -30 10 -28 13 -35 35 -16 54 9 9 16 3 30 -24
10 -20 17 -38 16 -40z m-1417 44 c0 -14 -81 -107 -93 -107 -4 0 1 10 13 22 11
12 20 26 20 31 0 14 40 67 51 67 5 0 9 -6 9 -13z m94 -11 c-6 -16 -24 -23 -24
-8 0 10 22 33 27 28 2 -2 1 -11 -3 -20z m1556 -5 c0 -6 -4 -13 -10 -16 -5 -3
-10 1 -10 9 0 9 5 16 10 16 6 0 10 -4 10 -9z m-1544 -36 c-9 -9 -16 -13 -16
-8 0 12 22 34 28 28 2 -2 -3 -11 -12 -20z m-421 -5 c3 -5 1 -10 -4 -10 -6 0
-11 5 -11 10 0 6 2 10 4 10 3 0 8 -4 11 -10z m45 -155 c0 -8 -4 -15 -10 -15
-5 0 -10 7 -10 15 0 8 5 15 10 15 6 0 10 -7 10 -15z m589 -505 c3 -3 19 -32
35 -65 56 -119 163 -228 276 -281 41 -19 83 -40 93 -45 145 -79 229 -104 340
-102 68 2 89 7 153 37 40 20 86 36 100 36 l27 0 -27 -25 c-15 -14 -45 -34 -67
-45 -21 -11 -39 -24 -39 -28 0 -5 13 -20 28 -35 31 -30 87 -50 113 -42 29 9
69 -12 69 -37 0 -13 7 -45 16 -73 12 -39 14 -74 8 -160 l-6 -110 -42 -40 c-24
-22 -58 -49 -76 -60 -43 -26 -67 -70 -79 -145 -6 -33 -16 -69 -24 -81 -14 -19
-17 -15 -45 68 -17 48 -46 133 -65 188 -35 99 -49 189 -51 315 -1 58 -3 65
-21 65 -18 0 -20 -7 -21 -80 0 -103 -8 -129 -39 -121 -21 5 -22 4 -15 -32 7
-36 53 -194 123 -427 18 -60 45 -137 60 -170 14 -33 33 -87 42 -120 22 -81 53
-173 72 -213 22 -47 9 -50 -36 -9 -22 20 -53 39 -68 43 -16 3 -39 9 -53 14
-14 4 -52 13 -85 20 -92 19 -185 59 -185 81 0 5 43 6 95 2 101 -6 112 -1 73
34 -20 17 -36 19 -118 18 -137 -2 -186 -24 -97 -43 41 -10 40 -10 -28 -11 -80
-1 -235 18 -250 30 -5 5 -18 9 -28 9 -13 0 -17 5 -14 14 4 9 -2 17 -14 21 -10
4 -19 15 -19 26 0 26 -10 24 -93 -16 -81 -40 -160 -56 -227 -46 -38 5 -46 10
-48 31 -2 14 -11 33 -20 43 -15 17 -31 18 -152 15 -95 -2 -165 2 -239 14 -70
12 -126 16 -172 12 -71 -7 -80 -3 -54 22 8 9 15 25 15 37 0 12 11 35 25 51 14
16 25 34 25 40 0 6 20 26 43 43 24 18 57 44 73 58 16 15 49 40 74 57 25 17 52
38 61 47 19 18 70 61 144 120 56 44 159 143 190 181 29 36 75 162 89 245 2 11
9 47 15 79 15 83 14 187 -4 281 -20 103 -15 124 39 157 60 39 77 60 84 110 4
25 8 35 10 23 2 -11 7 -22 11 -25z m-452 -9 c10 -10 13 -27 10 -55 -11 -85
-25 -138 -39 -152 -33 -33 -31 104 3 168 5 9 6 32 4 50 -3 18 -2 26 2 18 3 -8
13 -21 20 -29z m53 -63 c0 -14 5 -18 15 -15 19 8 26 -5 31 -55 4 -47 19 -69
40 -61 22 8 18 -69 -6 -120 -28 -58 -59 -98 -60 -75 0 9 5 29 11 44 9 25 14
80 10 122 -1 6 -5 12 -11 12 -5 0 -10 -20 -10 -45 0 -43 -28 -107 -75 -169
-33 -44 -45 -41 -44 12 0 38 2 43 9 25 5 -13 11 -23 14 -23 3 0 12 26 20 58 9
31 21 71 27 89 7 23 7 38 -1 54 -13 24 -4 41 11 19 6 -10 7 17 2 74 -5 66 -3
87 5 82 7 -4 12 -16 12 -28z m80 -42 c0 -8 -4 -18 -10 -21 -5 -3 -10 3 -10 14
0 12 5 21 10 21 6 0 10 -6 10 -14z m85 -134 c-1 -39 -7 -65 -19 -82 l-18 -25
8 45 c4 25 8 65 9 90 4 99 20 74 20 -28z m62 -283 c-3 -52 -8 -112 -12 -134
-6 -35 -41 -121 -55 -135 -3 -3 -14 -21 -24 -41 -11 -20 -31 -44 -45 -52 -14
-9 -60 -49 -102 -89 -81 -77 -141 -128 -199 -168 -19 -14 -54 -44 -77 -67 -23
-24 -45 -43 -48 -43 -15 0 -145 -125 -145 -140 0 -8 -14 -30 -31 -48 -27 -28
-34 -43 -38 -73 -2 -13 -59 -32 -116 -39 -33 -4 -67 -9 -75 -11 -11 -3 -14 3
-11 21 1 14 6 27 10 30 4 3 21 25 38 50 38 55 87 101 173 164 36 26 72 53 80
59 8 7 71 51 140 99 69 48 136 96 150 107 14 11 29 21 33 21 26 1 179 159 234
243 58 88 74 128 85 212 5 39 12 87 15 108 10 75 25 21 20 -74z m1471 -249 c7
-41 17 -89 23 -107 6 -20 6 -39 1 -50 -5 -10 -15 -34 -22 -53 -17 -49 -66
-182 -73 -200 -9 -21 -37 -126 -48 -175 -4 -22 -13 -60 -19 -85 -19 -72 -24
-218 -10 -291 11 -57 10 -69 -4 -98 -37 -71 -84 -5 -93 129 -5 73 -3 93 15
134 12 26 28 77 37 114 27 116 36 144 90 282 29 74 55 149 58 165 6 33 -8 163
-24 212 -13 41 11 106 38 101 13 -2 21 -21 31 -78z m1432 -281 c10 -7 11 -12
4 -15 -6 -3 -26 -18 -44 -34 -18 -16 -43 -32 -54 -35 -12 -4 -31 -11 -43 -17
-44 -22 -36 3 19 57 56 56 86 67 118 44z m71 -51 c10 -13 18 -27 19 -31 0 -12
-72 -80 -103 -96 -33 -18 -49 -5 -22 17 40 33 75 84 75 108 0 30 7 30 31 2z
m36 -140 c-3 -8 -6 -5 -6 6 -1 11 2 17 5 13 3 -3 4 -12 1 -19z m-1620 -245
c-3 -10 -5 -2 -5 17 0 19 2 27 5 18 2 -10 2 -26 0 -35z m0 -90 c-3 -10 -5 -2
-5 17 0 19 2 27 5 18 2 -10 2 -26 0 -35z m-1832 -12 c74 -27 125 -53 125 -64
0 -5 -8 -6 -17 -1 -40 17 -150 43 -186 43 -59 1 -176 -28 -237 -59 -87 -44
-90 -44 -127 -8 -18 17 -33 37 -33 44 0 14 91 43 137 45 15 1 39 5 53 9 14 4
72 8 130 9 80 1 117 -3 155 -18z m3642 -33 c-3 -8 -6 -5 -6 6 -1 11 2 17 5 13
3 -3 4 -12 1 -19z m-324 -19 c-4 -13 -9 -17 -16 -10 -12 12 -1 45 12 37 5 -3
7 -15 4 -27z m-1466 -81 c-2 -13 -4 -5 -4 17 -1 22 1 32 4 23 2 -10 2 -28 0
-40z m1451 -8 c-7 -17 -16 -30 -20 -30 -10 0 -10 7 1 28 5 9 13 26 16 37 5 13
9 15 12 7 3 -6 -1 -26 -9 -42z m-2728 22 c0 -10 -68 -32 -98 -32 -11 0 -46
-13 -77 -30 -64 -34 -100 -38 -109 -14 -9 22 11 44 40 44 12 0 26 5 29 10 3 6
25 10 48 11 23 1 53 5 67 9 34 11 100 12 100 2z m2716 -147 c3 -8 -5 -31 -18
-52 l-23 -38 -3 32 c-5 52 29 97 44 58z m-194 -154 c17 -6 34 -8 39 -5 5 3 9
-4 9 -15 0 -32 -52 -28 -90 7 -30 26 -31 27 -13 49 l18 22 3 -24 c2 -16 13
-27 34 -34z m146 47 c-2 -6 -10 -14 -16 -16 -7 -2 -10 2 -6 12 7 18 28 22 22
4z m-2068 -262 c0 -3 -4 -8 -10 -11 -5 -3 -10 -1 -10 4 0 6 5 11 10 11 6 0 10
-2 10 -4z m60 -37 c0 -12 -7 -19 -20 -19 -22 0 -26 20 -8 38 15 15 28 6 28
-19z m1727 -71 c22 -20 31 -48 16 -48 -12 0 -53 43 -53 57 0 19 10 16 37 -9z
m430 -10 c-3 -7 -5 -2 -5 12 0 14 2 19 5 13 2 -7 2 -19 0 -25z m-57 -44 c0
-65 0 -65 -27 -62 -14 2 -35 15 -47 31 -19 26 -19 30 -6 55 13 22 38 36 73 41
4 1 7 -29 7 -65z m37 -36 c-2 -13 -4 -3 -4 22 0 25 2 35 4 23 2 -13 2 -33 0
-45z m-875 -82 c-10 -23 -87 -257 -122 -371 -23 -78 -57 -171 -71 -197 -5 -10
-9 -22 -9 -28 0 -6 -9 -32 -21 -58 -12 -26 -24 -56 -29 -67 -4 -11 -12 -31
-18 -45 -6 -14 -18 -46 -26 -72 -15 -45 -48 -124 -67 -160 -5 -10 -9 -25 -9
-33 0 -8 -4 -24 -10 -35 -5 -11 -14 -29 -20 -40 -5 -11 -10 -25 -10 -32 0 -7
-9 -24 -20 -38 -18 -23 -20 -24 -20 -5 0 12 18 66 41 120 22 55 52 136 66 180
14 44 29 85 33 90 4 6 21 55 39 110 33 105 36 111 124 345 30 80 61 163 68
185 7 22 17 44 21 50 4 5 8 15 8 22 0 7 9 32 19 56 10 23 22 51 26 62 8 19 8
19 13 1 2 -10 0 -28 -6 -40z m891 -128 c18 -17 28 -42 36 -89 16 -94 15 -140
-3 -133 -11 4 -16 -8 -22 -53 -4 -32 -9 -49 -11 -38 -2 11 -8 29 -12 40 -11
26 -31 99 -31 114 0 16 38 -9 44 -29 3 -8 3 15 1 52 -4 67 -15 99 -42 126 -35
35 3 44 40 10z m614 6 c-3 -3 -12 -4 -19 -1 -8 3 -5 6 6 6 11 1 17 -2 13 -5z
m-2939 -237 c-51 -72 -138 -130 -252 -168 -39 -13 -74 -27 -77 -32 -4 -5 -12
-8 -19 -5 -11 3 169 138 185 138 14 0 112 71 155 114 60 59 64 34 8 -47z
m1778 4 c154 -43 229 -88 253 -153 7 -18 19 -44 27 -58 47 -81 77 -150 119
-275 l47 -139 -4 -111 c-6 -133 -29 -200 -123 -355 -34 -57 -115 -151 -115
-133 0 3 -9 -2 -20 -12 -22 -20 -41 -31 -110 -66 -25 -12 -54 -30 -65 -39 -11
-10 -41 -25 -67 -35 -26 -10 -53 -24 -59 -32 -7 -7 -20 -11 -30 -8 -10 3 -37
1 -61 -6 -24 -6 -59 -13 -78 -14 -19 -1 -55 -6 -80 -10 -75 -12 -125 8 -192
76 -32 33 -67 78 -79 102 -21 40 -21 46 -10 152 13 110 18 139 66 337 45 185
120 382 216 568 77 148 110 186 180 210 70 24 100 24 185 1z m-2685 -171 c23
-17 77 -154 79 -202 0 -9 -14 -24 -31 -32 l-31 -16 7 28 c20 70 12 114 -38
201 -51 91 -63 130 -20 66 14 -22 30 -42 34 -45z m3133 -23 c27 -48 59 -139
75 -212 21 -104 33 -191 28 -215 -3 -19 -5 -16 -6 12 0 20 -5 40 -11 43 -5 3
-10 16 -10 28 0 27 -49 189 -61 202 -5 5 -9 19 -9 31 0 13 -4 26 -10 29 -5 3
-10 16 -10 29 0 12 -4 26 -9 32 -5 5 -12 24 -16 43 -9 43 6 35 39 -22z m-2799
-157 c-3 -5 -10 -10 -16 -10 -5 0 -9 5 -9 10 0 6 7 10 16 10 8 0 12 -4 9 -10z
m4702 -426 c-9 -9 -28 6 -21 18 4 6 10 6 17 -1 6 -6 8 -13 4 -17z m-3307 -237
c-13 -54 -86 -217 -113 -252 -16 -20 -16 -20 -17 5 0 36 24 101 82 220 54 108
68 117 48 27z m46 -361 c-3 -12 -15 -33 -26 -46 -21 -24 -26 -21 -11 8 5 9 16
32 23 50 14 34 24 26 14 -12z m175 -53 c34 -65 82 -116 135 -143 58 -30 149
-83 169 -100 12 -10 3 -18 -53 -46 -37 -19 -92 -50 -122 -70 -30 -19 -62 -33
-70 -32 -10 2 -17 22 -22 66 -12 107 -17 114 -67 88 -18 -10 -32 -29 -41 -58
-7 -24 -17 -47 -22 -52 -4 -6 -8 -20 -8 -33 0 -13 -4 -23 -10 -23 -13 0 -13
45 0 88 7 25 5 50 -7 95 -15 60 -15 61 8 79 20 17 23 29 25 108 1 49 5 99 9
110 7 20 7 20 30 -6 13 -15 34 -47 46 -71z m-241 -87 c0 -3 -4 -8 -10 -11 -5
-3 -10 -1 -10 4 0 6 5 11 10 11 6 0 10 -2 10 -4z m26 -147 c22 -25 21 -55 -7
-126 -18 -45 -28 -56 -72 -78 -56 -28 -94 -32 -120 -12 -15 11 -15 15 2 52 25
55 96 142 134 166 40 24 40 24 63 -2z m2478 -135 c23 -63 27 -93 15 -115 -10
-20 -13 -17 -34 35 -26 64 -33 172 -9 138 7 -10 19 -36 28 -58z m-1731 -39 c8
-18 -38 -55 -68 -55 -13 0 -33 8 -45 18 l-23 19 24 16 c30 21 105 23 112 2z
m680 -82 l-10 -38 -12 42 c-9 32 -9 47 1 69 l13 27 9 -30 c5 -19 5 -47 -1 -70z
m-477 29 c-12 -77 -66 -84 -66 -8 0 51 21 72 53 54 15 -8 18 -17 13 -46z
m-436 -55 c19 -12 46 -31 60 -44 32 -30 140 -87 140 -74 0 5 -4 13 -10 16 -16
10 -12 35 5 35 8 0 23 -4 33 -9 41 -22 113 -51 126 -51 8 0 28 -12 45 -26 29
-24 31 -30 31 -92 0 -39 9 -94 20 -130 24 -76 26 -170 4 -232 -20 -59 -72
-140 -90 -140 -18 0 -18 2 6 85 21 75 28 229 10 240 -5 3 -10 16 -10 29 0 13
-11 38 -25 57 -13 19 -30 44 -36 57 -19 36 -26 26 -32 -47 -3 -38 -15 -88 -26
-112 -12 -24 -21 -48 -21 -55 0 -19 -67 -129 -101 -169 -35 -40 -125 -101
-162 -110 -62 -16 -81 18 -106 190 -27 185 -47 269 -113 468 -42 126 -40 131
52 138 101 8 158 1 200 -24z m827 0 c-7 -46 -34 -107 -46 -107 -11 0 -16 32
-13 80 1 23 35 59 56 60 5 0 6 -15 3 -33z m-1328 3 c17 -9 18 -29 16 -302 -2
-276 -4 -296 -24 -348 -54 -133 -84 -153 -246 -167 -98 -9 -116 -8 -162 9 -29
11 -53 23 -53 27 0 3 -23 30 -51 60 -56 59 -63 74 -74 149 -6 42 -2 68 16 125
12 40 31 83 41 96 10 13 18 28 18 34 0 14 66 100 123 162 26 27 47 53 47 57 0
4 20 21 44 38 36 24 67 34 158 49 62 11 117 20 121 20 5 1 16 -3 26 -9z m1070
-30 c10 -33 9 -48 -4 -87 -15 -43 -15 -51 0 -97 9 -28 25 -66 36 -84 25 -43
27 -178 3 -224 -9 -18 -19 -27 -25 -21 -14 14 -72 175 -76 213 -2 19 3 78 12
130 10 52 19 121 22 153 3 31 9 57 13 57 4 0 12 -18 19 -40z m-908 -131 c4
-74 9 -228 13 -344 6 -227 5 -227 -33 20 -6 33 -17 101 -25 150 -21 123 -21
264 0 293 30 43 39 21 45 -119z m988 -135 c-6 -7 -15 -11 -20 -8 -15 9 -10 94
9 127 l17 32 3 -68 c2 -42 -2 -74 -9 -83z m-1779 -28 c0 -35 -132 -301 -169
-341 -16 -16 -37 -45 -47 -63 -33 -57 -112 -63 -163 -11 -27 27 -51 93 -51
140 0 33 44 85 98 116 26 15 67 40 92 57 93 63 240 126 240 102z m3174 -31
c-13 -45 -40 -95 -51 -95 -18 0 -35 38 -27 63 10 35 33 55 59 53 20 -1 24 -5
19 -21z m103 -166 c9 -9 8 -15 -2 -25 -21 -21 -35 -17 -35 11 0 26 18 33 37
14z m-1410 -181 c-3 -7 -5 -2 -5 12 0 14 2 19 5 13 2 -7 2 -19 0 -25z m-2405
-13 c20 -14 41 -25 45 -25 5 0 15 -6 21 -12 7 -7 36 -20 65 -29 52 -16 52 -17
59 -65 15 -94 -17 -224 -55 -224 -20 0 -116 110 -151 173 -49 88 -73 171 -56
191 17 22 29 20 72 -9z m3724 -55 c6 -6 8 -27 5 -48 -5 -31 -10 -37 -30 -37
-27 0 -55 34 -34 42 7 2 9 11 6 20 -10 25 33 43 53 23z m-1703 -163 c3 -18 11
-57 16 -87 10 -51 7 -125 -6 -160 -4 -8 -18 -50 -32 -94 -14 -43 -30 -78 -36
-77 -12 2 -8 160 6 211 16 62 11 181 -8 202 -17 19 -16 20 7 38 30 22 46 13
53 -33z m-4699 -28 c-3 -5 -10 -7 -15 -3 -5 3 -7 10 -3 15 3 5 10 7 15 3 5 -3
7 -10 3 -15z m6026 1 c0 -17 -47 -60 -65 -60 -20 0 -19 7 8 40 22 28 57 40 57
20z m-1514 -32 c-3 -18 -10 -73 -15 -123 -17 -163 -48 -223 -155 -299 -96 -69
-123 -151 -57 -174 20 -7 30 -18 33 -39 7 -49 -18 -226 -37 -267 -32 -67 -132
-126 -214 -126 -56 0 -76 19 -91 87 -16 70 6 263 30 263 5 0 19 -4 33 -9 40
-15 51 0 44 62 -4 30 -14 71 -22 91 -9 20 -20 87 -26 149 -11 121 -39 229 -80
309 -13 26 -11 44 6 58 13 11 18 10 31 -8 16 -24 43 -29 61 -11 19 19 126 40
268 53 215 20 198 22 191 -16z m414 5 c0 -5 2 -98 4 -208 7 -289 -13 -415 -76
-492 -31 -38 -153 -133 -205 -160 -25 -13 -53 -38 -53 -47 0 -11 38 -6 66 9
30 15 80 20 108 9 14 -5 13 -9 -4 -31 -10 -13 -16 -31 -13 -39 3 -8 -1 -14 -9
-14 -8 0 -28 -11 -44 -25 -22 -19 -40 -25 -76 -25 -42 0 -48 -3 -48 -20 0 -19
4 -20 49 -14 60 8 78 -10 30 -30 -18 -8 -39 -12 -46 -9 -17 7 -16 -31 2 -77
13 -33 14 -33 21 -12 4 13 14 22 27 22 11 0 28 6 36 14 30 26 59 29 71 6 12
-23 4 -44 -29 -74 -15 -14 -18 -22 -10 -32 7 -8 7 -14 -1 -19 -5 -3 -10 -17
-10 -29 0 -26 -21 -38 -134 -81 l-65 -24 -10 50 c-6 27 -11 55 -11 61 0 5 -12
24 -26 41 -22 26 -23 32 -10 39 16 9 14 48 -4 93 -4 11 -13 33 -19 48 -6 15
-11 37 -11 47 0 24 60 70 91 70 25 0 49 16 49 33 0 5 -14 5 -32 2 l-31 -7 20
33 c32 53 73 164 73 198 0 16 5 33 10 36 6 3 10 19 10 35 0 16 5 32 10 35 6 3
10 19 10 36 0 16 5 29 11 29 7 0 9 -11 5 -32 -17 -85 -27 -149 -33 -213 -5
-61 -4 -68 10 -57 27 23 105 187 117 247 11 56 18 107 55 365 20 145 24 156
55 190 25 27 70 41 70 23z m-1410 -44 c283 -20 309 -23 326 -41 15 -15 16 -22
5 -58 -6 -22 -9 -44 -6 -49 11 -19 -17 -159 -44 -218 -33 -68 -96 -138 -146
-159 -18 -7 -67 -14 -108 -16 -63 -1 -83 3 -130 26 -66 32 -145 101 -186 162
-59 86 -82 210 -48 252 6 7 7 35 3 69 l-7 56 103 -7 c57 -4 164 -12 238 -17z
m-1253 -59 c19 -15 41 -20 82 -20 63 0 89 -16 115 -67 36 -73 133 -193 155
-193 5 0 12 12 15 26 9 35 64 56 140 54 100 -4 104 -2 158 53 l52 52 12 -50
c7 -27 13 -64 13 -81 1 -17 5 -44 10 -60 5 -16 21 -69 36 -117 29 -92 29 -109
6 -264 -9 -61 -15 -71 -36 -53 -18 15 -18 16 -39 -35 -29 -66 -32 -70 -60 -73
-52 -6 -146 49 -216 126 -44 50 -71 72 -87 72 -32 0 -30 -27 6 -98 30 -60 94
-126 136 -142 13 -5 43 -21 65 -35 31 -19 41 -31 37 -45 -4 -15 5 -22 41 -34
25 -9 54 -16 63 -16 33 0 69 -23 69 -44 0 -15 3 -17 12 -8 15 15 48 16 48 1 0
-6 -11 -24 -25 -41 -14 -16 -25 -36 -25 -44 0 -8 -4 -14 -9 -14 -6 0 -12 -12
-14 -27 -2 -16 -2 4 0 42 l3 70 -15 -45 c-9 -25 -20 -72 -26 -105 -21 -132
-27 -161 -37 -187 -10 -25 -14 -26 -44 -17 -18 5 -34 9 -34 9 -1 0 -5 20 -8
45 -8 53 -27 59 -53 15 -19 -33 -31 -35 -142 -24 -70 8 -73 14 -36 80 14 25
25 52 25 61 0 13 8 15 53 9 28 -4 71 -16 95 -28 33 -17 45 -19 55 -9 21 21 -7
44 -79 63 -38 10 -81 18 -96 18 -22 0 -29 6 -37 33 l-9 32 -1 -42 c-1 -23 -5
-44 -10 -47 -4 -3 -16 -31 -25 -63 -9 -32 -20 -64 -25 -71 -13 -22 -44 -10
-61 23 -8 17 -16 32 -18 34 -1 3 -8 -1 -14 -7 -7 -7 -18 -12 -25 -12 -16 0
-18 78 -4 124 11 34 42 200 45 231 0 12 -8 24 -21 30 -37 16 -26 25 30 25 l52
0 -47 30 c-27 17 -52 30 -58 30 -5 0 -10 4 -10 9 0 5 -8 11 -17 14 -10 3 -51
17 -91 31 -41 14 -80 26 -87 26 -19 0 -49 -51 -50 -85 0 -23 -7 -33 -32 -45
-17 -8 -82 -61 -143 -117 -109 -100 -132 -115 -146 -92 -6 10 12 57 27 69 14
12 59 102 59 120 0 10 5 22 10 25 6 3 10 15 10 26 0 10 4 27 9 37 5 9 15 31
22 47 8 17 20 36 26 43 7 7 17 20 22 29 8 15 15 15 61 5 28 -7 66 -12 84 -12
17 0 49 -9 71 -20 41 -21 90 -26 100 -11 3 6 -3 25 -13 43 -29 54 -49 127 -62
223 -7 50 -18 101 -25 115 -13 25 -48 193 -60 285 -4 28 -9 58 -12 68 -6 24
22 22 54 -3z m836 -68 c5 -24 3 -32 -5 -30 -17 6 -32 63 -23 85 7 17 7 17 14
-2 5 -11 11 -35 14 -53z m-2927 -29 c-3 -8 6 -25 22 -39 15 -14 20 -23 12 -20
-8 3 -22 9 -32 12 -18 7 -30 38 -21 60 3 8 9 11 15 8 5 -3 7 -13 4 -21z m4855
-370 c-9 -16 -10 -14 -11 12 0 21 3 26 11 18 8 -8 8 -16 0 -30z m-517 -14
c-21 -23 -34 -24 -34 -3 0 9 9 18 20 21 11 3 20 10 21 17 0 6 3 6 6 -2 3 -7
-3 -22 -13 -33z m513 -91 c11 -24 25 -70 32 -103 7 -33 20 -80 28 -105 8 -25
17 -61 20 -80 3 -19 15 -46 27 -60 13 -14 29 -40 36 -58 16 -41 4 -57 -49 -66
-22 -3 -53 -17 -69 -31 -29 -25 -52 -32 -52 -17 0 4 10 13 21 20 21 14 21 14
-19 55 -40 41 -65 56 -144 92 -31 14 -38 23 -38 45 0 65 87 163 156 176 31 6
34 9 34 41 0 31 -2 34 -22 27 -35 -11 -68 -35 -68 -49 0 -8 -9 -10 -25 -7 -14
2 -25 7 -25 11 0 4 20 23 45 41 25 19 48 46 52 60 6 28 21 50 33 50 4 0 17
-19 27 -42z m-1859 0 c36 -45 56 -101 68 -191 13 -103 10 -160 -11 -177 -9 -8
-17 -4 -27 12 -18 28 -27 67 -37 173 -5 44 -12 106 -16 138 -8 57 0 72 23 45z
m546 -29 c14 -11 26 -26 26 -33 0 -7 9 -25 20 -39 16 -20 20 -40 20 -101 0
-43 -6 -91 -14 -110 -24 -58 -125 -114 -182 -100 -20 5 -25 3 -22 -7 6 -19 45
-26 188 -37 134 -10 196 -1 363 51 63 19 74 20 145 8 51 -9 85 -20 100 -34 20
-18 26 -19 43 -8 29 18 39 3 12 -18 -12 -10 -25 -34 -28 -54 -4 -20 -12 -34
-17 -31 -5 3 -7 17 -4 30 9 33 -8 30 -34 -5 -11 -16 -30 -31 -43 -33 -15 -2
-21 -9 -19 -21 2 -9 -5 -20 -15 -24 -34 -12 -43 -24 -33 -43 6 -10 19 -21 30
-25 12 -4 24 -22 32 -47 11 -36 10 -42 -7 -54 -17 -13 -22 -11 -51 17 -36 35
-46 33 -70 -16 -9 -19 -23 -35 -32 -35 -17 0 -112 88 -112 103 0 13 -43 46
-52 40 -5 -2 -8 -12 -8 -21 0 -24 -118 -140 -165 -162 -61 -29 -66 -24 -24 23
42 45 62 99 57 150 l-4 32 -13 -30 c-41 -96 -68 -124 -133 -139 l-28 -6 0 99
c0 65 -5 111 -15 135 -8 19 -14 41 -13 48 2 7 -4 13 -12 13 -13 0 -14 -19 -11
-123 2 -73 -1 -132 -7 -145 -6 -12 -13 -30 -16 -39 -4 -13 -16 -18 -39 -18
-42 0 -57 15 -57 57 0 18 -2 33 -5 33 -3 0 -36 -25 -72 -55 -73 -60 -113 -70
-169 -41 -142 74 -168 250 -48 331 24 17 43 20 90 18 130 -7 139 -6 137 5 -2
6 20 21 48 33 l51 22 -30 12 c-16 7 -42 11 -58 9 -16 -2 -21 -1 -11 2 19 6 24
58 6 69 -5 4 -8 12 -6 18 2 7 0 21 -6 31 -23 45 -36 132 -26 171 6 22 13 51
16 65 11 48 17 50 163 50 124 0 140 -2 164 -21z m-1534 -29 c0 -14 -49 -32
-85 -32 -35 1 -54 -12 -80 -51 -24 -37 -30 -28 -9 14 23 49 69 77 127 78 26 1
47 -4 47 -9z m2637 -86 c-3 -3 -12 -4 -19 -1 -8 3 -5 6 6 6 11 1 17 -2 13 -5z
m-2847 -113 c0 -6 -4 -13 -10 -16 -5 -3 -10 1 -10 9 0 9 5 16 10 16 6 0 10 -4
10 -9z m2833 -48 c-5 -11 -8 -12 -13 -2 -5 7 -6 19 -3 26 5 11 8 12 13 2 5 -7
6 -19 3 -26z m-2353 19 c0 -4 -4 -12 -9 -17 -14 -15 -40 -100 -58 -184 -29
-145 -32 -151 -28 -66 4 94 14 153 26 161 5 3 9 14 9 25 0 10 4 27 9 37 5 9
12 25 15 35 5 17 36 25 36 9z m-1260 -92 c20 -16 22 -20 8 -20 -10 0 -18 5
-18 10 0 6 -6 10 -13 10 -17 0 -78 45 -71 53 6 6 53 -21 94 -53z m4530 50 c0
-5 -5 -10 -11 -10 -5 0 -7 5 -4 10 3 6 8 10 11 10 2 0 4 -4 4 -10z m-4890 -35
c7 -14 11 -28 8 -31 -9 -9 -50 35 -43 46 10 16 21 11 35 -15z m4849 -1 c-14
-18 -24 -11 -15 11 3 9 11 13 16 10 8 -5 7 -11 -1 -21z m-59 -44 c0 -10 -52
-40 -70 -40 -5 0 -10 5 -10 10 0 6 9 10 19 10 10 0 21 7 25 15 6 16 36 21 36
5z m-4363 -6 c-3 -3 -12 -4 -19 -1 -8 3 -5 6 6 6 11 1 17 -2 13 -5z m3638
-112 c40 -36 43 -42 16 -42 -11 0 -23 -5 -27 -12 -8 -13 -34 17 -34 41 0 8
-12 25 -27 36 -15 13 -23 27 -19 34 8 12 21 4 91 -57z m-1538 52 c-3 -3 -12
-4 -19 -1 -8 3 -5 6 6 6 11 1 17 -2 13 -5z m-1502 -76 c-3 -13 -10 -36 -13
-51 l-7 -29 -23 31 c-12 17 -22 34 -22 39 0 16 24 32 48 32 21 0 23 -3 17 -22z
m1255 -263 c0 -8 -6 -12 -14 -9 -14 5 -36 47 -36 67 1 17 50 -41 50 -58z
m1207 33 c-3 -8 -6 -5 -6 6 -1 11 2 17 5 13 3 -3 4 -12 1 -19z m-329 -32 c5
-25 -12 -39 -37 -31 -24 7 -27 25 -9 43 17 17 42 11 46 -12z m55 -43 c-7 -2
-21 -2 -30 0 -10 3 -4 5 12 5 17 0 24 -2 18 -5z m-1975 -119 c59 -12 132 -36
132 -44 0 -7 -33 -20 -52 -20 -5 0 -8 7 -8 15 0 11 -8 13 -30 9 -22 -5 -31 -2
-36 10 -4 11 -18 16 -45 16 -21 0 -39 4 -39 9 0 12 21 21 38 15 8 -2 26 -7 40
-10z m168 -33 c-3 -5 1 -14 10 -21 12 -11 12 -15 2 -21 -22 -15 -28 -10 -28
21 0 17 5 30 11 30 5 0 8 -4 5 -9z m121 -15 c13 -2 26 -6 30 -9 3 -4 15 -7 25
-7 10 0 30 -7 44 -16 19 -13 28 -14 36 -6 9 9 15 8 26 -1 8 -6 26 -13 39 -14
12 -2 34 -4 46 -5 13 -2 31 -9 41 -17 11 -9 30 -12 61 -8 36 5 43 4 39 -8 -5
-11 2 -15 24 -15 30 0 50 -14 35 -23 -5 -3 -25 -8 -46 -12 -30 -6 -37 -4 -37
9 0 13 -11 16 -55 16 -30 0 -55 5 -55 10 0 6 -20 10 -44 10 -24 0 -46 5 -48
10 -2 6 -39 11 -86 11 -45 0 -82 5 -82 10 0 5 -16 9 -35 9 -32 0 -35 3 -35 28
0 36 9 45 35 37 11 -4 30 -8 42 -9z m570 -137 c-15 -25 -39 -24 -62 1 -18 19
-17 20 3 20 12 0 22 4 22 10 0 6 9 5 24 -1 21 -10 23 -14 13 -30z m125 1 c18
1 40 2 48 1 31 -3 -14 -21 -52 -21 -29 0 -40 5 -49 23 -11 20 -11 21 4 9 9 -8
31 -13 49 -12z m351 -7 c-7 -2 -19 -2 -25 0 -7 3 -2 5 12 5 14 0 19 -2 13 -5z"/>
<path d="M5530 9670 c0 -5 5 -10 11 -10 5 0 7 5 4 10 -3 6 -8 10 -11 10 -2 0
-4 -4 -4 -10z"/>
<path d="M4972 9645 c12 -14 26 -25 32 -25 5 0 -1 11 -14 25 -13 14 -27 25
-32 25 -4 0 2 -11 14 -25z"/>
<path d="M4950 9610 c0 -5 5 -10 11 -10 5 0 7 5 4 10 -3 6 -8 10 -11 10 -2 0
-4 -4 -4 -10z"/>
<path d="M4340 9500 c0 -13 40 -13 60 0 11 7 5 10 -22 10 -21 0 -38 -4 -38
-10z"/>
<path d="M4800 9500 c0 -5 5 -10 11 -10 5 0 7 5 4 10 -3 6 -8 10 -11 10 -2 0
-4 -4 -4 -10z"/>
<path d="M5161 9494 c0 -11 3 -14 6 -6 3 7 2 16 -1 19 -3 4 -6 -2 -5 -13z"/>
<path d="M4275 9480 c-3 -5 3 -10 14 -10 12 0 21 5 21 10 0 6 -6 10 -14 10 -8
0 -18 -4 -21 -10z"/>
<path d="M4490 9321 l-45 -7 46 -8 c56 -9 91 -5 97 12 4 13 -20 14 -98 3z"/>
<path d="M4330 9270 c-8 -5 -27 -10 -42 -10 -15 0 -30 -4 -33 -10 -3 -5 -21
-10 -40 -10 -19 0 -37 -4 -40 -10 -3 -5 -13 -10 -21 -10 -77 0 -279 -182 -355
-320 -34 -63 -55 -181 -29 -165 6 3 10 17 10 30 0 56 150 243 251 312 106 73
246 134 304 132 16 0 23 -3 15 -6 -8 -2 -24 -8 -35 -12 -11 -5 -33 -14 -48
-20 -15 -6 -35 -11 -43 -11 -21 0 -96 -57 -84 -65 10 -6 75 12 96 27 6 4 46
13 90 19 43 6 94 13 113 15 24 4 48 20 82 56 27 28 49 55 49 60 0 11 -222 10
-240 -2z"/>
<path d="M3907 9168 c-53 -70 -88 -152 -61 -141 8 3 14 11 14 17 0 18 24 66
33 66 4 0 7 5 7 10 0 6 10 24 22 40 12 16 19 32 16 36 -3 3 -17 -10 -31 -28z"/>
<path d="M4328 9103 c7 -3 16 -2 19 1 4 3 -2 6 -13 5 -11 0 -14 -3 -6 -6z"/>
<path d="M4611 9068 c0 -29 38 -169 38 -145 1 9 6 17 11 17 6 0 10 11 10 24 0
14 -4 28 -10 31 -5 3 -10 14 -10 24 0 21 -22 71 -32 71 -5 0 -8 -10 -7 -22z"/>
<path d="M5347 9023 c-14 -13 -7 -42 12 -52 15 -9 20 -7 24 11 8 31 -18 60
-36 41z"/>
<path d="M5130 8983 c-8 -3 -17 -9 -20 -12 -3 -3 -57 -19 -120 -34 -170 -42
-206 -59 -308 -147 -65 -55 -68 -81 -12 -100 36 -12 42 -11 59 4 11 10 25 15
30 11 6 -3 11 -1 11 5 0 15 62 90 75 90 6 0 16 9 22 19 15 24 63 35 111 26
l37 -7 -25 -13 -25 -13 28 -11 c38 -15 29 -35 -19 -42 -124 -20 -143 -28 -194
-76 -27 -27 -63 -58 -80 -71 -61 -47 -22 -69 62 -35 24 9 46 21 49 26 23 33
221 42 244 10 17 -22 124 -28 170 -9 34 15 38 19 25 29 -10 8 -15 31 -15 72 0
33 -4 72 -9 88 -8 26 -7 27 27 27 20 0 39 -5 42 -10 10 -17 26 0 20 21 -5 14
-1 19 12 19 18 0 53 57 53 87 0 13 -3 13 -15 3 -13 -11 -21 -11 -43 0 -74 35
-163 55 -192 43z m-70 -251 c0 -5 -19 -15 -42 -22 -24 -7 -56 -16 -72 -21 -16
-5 -45 -9 -65 -9 l-36 0 25 20 c14 11 35 20 47 20 12 0 25 5 28 10 7 12 115
14 115 2z"/>
<path d="M5383 8736 c-29 -33 -58 -94 -49 -103 2 -2 21 5 42 16 21 12 49 21
61 21 14 0 23 6 23 15 0 8 4 15 10 15 15 0 -24 65 -41 68 -8 1 -29 -13 -46
-32z"/>
<path d="M5970 8491 c0 -5 7 -12 16 -15 14 -5 15 -4 4 9 -14 17 -20 19 -20 6z"/>
<path d="M6076 8461 c-4 -5 -3 -42 1 -83 8 -81 8 -91 -2 -295 -6 -104 -4 -143
4 -143 7 0 11 23 11 63 0 74 16 177 29 190 24 24 325 -59 671 -184 40 -14 106
-42 165 -70 22 -10 55 -24 73 -31 17 -7 32 -16 32 -20 0 -5 4 -8 10 -8 5 0 33
-15 62 -33 29 -19 60 -37 68 -40 8 -4 29 -16 45 -27 17 -11 37 -23 45 -27 74
-34 370 -246 370 -264 0 -5 7 -9 15 -9 8 0 15 -3 15 -7 0 -5 17 -19 38 -33
149 -98 392 -344 576 -584 21 -28 42 -53 45 -56 22 -18 181 -250 181 -265 0
-3 34 -61 75 -131 74 -124 162 -291 205 -389 12 -27 32 -72 45 -100 50 -110
128 -337 156 -454 11 -47 22 -95 25 -106 8 -31 39 -195 71 -375 36 -200 38
-236 38 -655 0 -181 1 -297 3 -257 2 39 7 72 11 72 27 0 36 431 13 620 -7 58
-17 143 -22 190 -6 47 -15 117 -20 155 -6 39 -13 88 -16 110 -4 22 -10 44 -15
49 -5 6 -9 21 -9 35 0 13 -4 38 -9 55 -14 44 -42 165 -48 204 -3 18 -9 35 -14
38 -5 3 -9 15 -9 28 0 12 -4 26 -8 32 -5 5 -14 29 -22 54 -14 49 -53 164 -96
279 -26 73 -158 337 -235 474 -22 38 -39 71 -39 74 0 9 -266 402 -280 413 -3
3 -17 21 -30 40 -13 19 -30 41 -38 49 -7 8 -38 44 -67 80 -141 173 -435 447
-605 561 -19 13 -37 27 -40 30 -6 8 -248 172 -275 186 -11 6 -40 23 -65 38
-46 27 -438 222 -475 236 -29 11 -96 40 -127 55 -15 7 -51 19 -80 26 -29 7
-62 19 -73 26 -11 7 -28 13 -37 13 -18 0 -25 3 -86 33 -19 9 -42 17 -52 17
-10 0 -22 5 -26 11 -4 7 -23 9 -54 5 -32 -4 -56 -2 -74 8 -23 11 -24 15 -10
20 10 4 22 2 28 -4 5 -5 16 -10 24 -10 10 0 8 6 -6 24 -30 39 -80 77 -86 67z"/>
<path d="M5723 8290 c-16 -13 -40 -16 -119 -14 -77 2 -107 -2 -139 -16 -22
-10 -57 -24 -79 -32 -37 -12 -88 -55 -107 -90 -17 -31 21 -28 109 8 48 20 95
40 104 45 36 19 184 10 263 -15 70 -22 78 -23 106 -9 17 8 31 13 33 12 15 -24
76 -154 76 -164 0 -7 7 -26 16 -41 15 -27 15 -22 10 90 -4 65 -9 122 -12 127
-3 5 -13 3 -24 -3 -29 -19 -96 8 -133 54 -17 21 -43 44 -57 52 -23 11 -30 11
-47 -4z"/>
<path d="M3943 8280 c-31 -19 -68 -72 -57 -83 3 -3 24 5 47 17 l41 24 61 -25
c33 -14 75 -31 93 -39 43 -19 52 -18 52 6 0 32 -57 87 -107 104 -61 21 -91 20
-130 -4z"/>
<path d="M4180 8122 c0 -12 -8 -25 -17 -29 -41 -14 -73 -45 -73 -69 0 -13 5
-24 10 -24 6 0 10 6 10 13 0 8 16 22 36 33 52 27 68 54 49 80 -14 18 -14 18
-15 -4z"/>
<path d="M5594 8109 c-37 -10 -68 -43 -61 -62 16 -42 297 -38 305 5 10 52
-140 87 -244 57z"/>
<path d="M4213 8063 c-7 -3 -13 -20 -13 -38 0 -34 -36 -75 -66 -75 -18 0 -18
-14 1 -30 10 -8 19 -9 28 -2 6 5 28 12 47 15 76 13 100 20 100 29 0 6 -16 26
-35 45 -19 19 -39 41 -43 48 -4 6 -13 10 -19 8z"/>
<path d="M3990 7940 c0 -5 5 -10 11 -10 5 0 7 5 4 10 -3 6 -8 10 -11 10 -2 0
-4 -4 -4 -10z"/>
<path d="M4016 7921 c-8 -13 59 -42 79 -35 14 6 14 8 -2 19 -25 17 -71 27 -77
16z"/>
<path d="M2993 7575 c-26 -11 -28 -18 -10 -34 19 -15 53 10 41 30 -7 11 -14
12 -31 4z"/>
<path d="M3090 7467 c0 -8 -12 -24 -26 -38 -29 -27 -49 -59 -37 -59 4 0 25 16
46 34 34 32 50 76 27 76 -5 0 -10 -6 -10 -13z"/>
<path d="M2788 7413 c7 -3 16 -2 19 1 4 3 -2 6 -13 5 -11 0 -14 -3 -6 -6z"/>
<path d="M3130 7364 c-25 -20 -47 -39 -50 -43 -3 -4 -33 -27 -68 -51 -44 -30
-60 -45 -51 -51 16 -10 63 17 94 54 13 15 30 27 38 27 18 0 86 52 87 67 0 6
12 16 28 21 l27 10 -30 1 c-20 1 -45 -11 -75 -35z"/>
<path d="M6161 7336 c0 -39 3 -66 7 -60 5 5 6 36 2 69 l-7 60 -2 -69z"/>
<path d="M2705 7356 l-30 -24 57 -56 c64 -63 147 -163 226 -272 51 -71 54 -73
80 -61 15 6 29 14 32 17 3 3 46 39 95 80 50 41 114 94 143 118 34 29 52 51 52
66 0 37 -12 38 -45 4 -17 -18 -66 -60 -109 -93 -43 -33 -92 -73 -110 -88 -37
-33 -70 -49 -90 -41 -15 6 -75 75 -116 134 -29 41 -34 46 -105 127 -61 69 -59
66 -45 94 14 26 1 24 -35 -5z"/>
<path d="M3202 7300 c0 -14 2 -19 5 -12 2 6 2 18 0 25 -3 6 -5 1 -5 -13z"/>
<path d="M6595 7310 c3 -5 8 -10 11 -10 2 0 4 5 4 10 0 6 -5 10 -11 10 -5 0
-7 -4 -4 -10z"/>
<path d="M6825 7310 c3 -5 8 -10 11 -10 2 0 4 5 4 10 0 6 -5 10 -11 10 -5 0
-7 -4 -4 -10z"/>
<path d="M6620 7290 c0 -5 7 -10 15 -10 8 0 15 5 15 10 0 6 -7 10 -15 10 -8 0
-15 -4 -15 -10z"/>
<path d="M6852 7289 c4 -12 48 -46 48 -37 0 2 -12 15 -26 27 -15 13 -24 17
-22 10z"/>
<path d="M7042 7284 c-11 -12 -8 -19 19 -42 33 -27 63 -39 109 -41 24 -1 24 0
-7 22 -18 12 -37 32 -44 44 -9 17 -16 20 -30 13 -24 -14 -29 -12 -23 5 8 19
-7 19 -24 -1z"/>
<path d="M3217 7235 c-15 -19 -25 -35 -21 -35 12 0 74 51 74 61 0 20 -26 7
-53 -26z"/>
<path d="M6700 7250 c0 -5 5 -10 11 -10 5 0 7 -4 4 -10 -9 -14 -68 -13 -83 2
-12 12 -30 -4 -92 -77 -50 -59 -112 -105 -144 -105 -17 -1 -44 -7 -61 -14
l-30 -14 28 -11 c40 -16 137 -14 171 4 42 22 53 18 27 -9 -22 -23 -22 -25 -6
-50 23 -34 35 -33 35 3 0 24 13 41 64 87 72 65 130 93 194 93 l43 1 -26 27
c-14 15 -25 31 -25 35 0 5 -9 8 -20 8 -12 0 -17 -5 -14 -13 3 -8 -10 -20 -33
-31 -20 -10 -43 -26 -51 -37 -7 -10 -19 -19 -26 -19 -7 0 -25 -9 -40 -21 -29
-23 -36 -15 -8 10 10 9 26 29 36 44 9 16 32 35 51 42 43 19 50 39 19 59 -13 9
-24 12 -24 6z"/>
<path d="M6363 7225 c-15 -13 -22 -25 -15 -25 17 0 62 30 62 41 0 16 -18 10
-47 -16z"/>
<path d="M7010 7230 c0 -5 9 -10 20 -10 11 0 20 5 20 10 0 6 -9 10 -20 10 -11
0 -20 -4 -20 -10z"/>
<path d="M6945 7220 c-9 -15 -1 -23 21 -18 15 3 16 4 1 16 -11 9 -17 10 -22 2z"/>
<path d="M6325 7180 c3 -5 8 -10 11 -10 2 0 4 5 4 10 0 6 -5 10 -11 10 -5 0
-7 -4 -4 -10z"/>
<path d="M6310 7163 c0 -6 -7 -19 -16 -27 -19 -20 -6 -20 20 -1 16 12 17 18 8
27 -9 9 -12 9 -12 1z"/>
<path d="M6968 7143 c7 -3 16 -2 19 1 4 3 -2 6 -13 5 -11 0 -14 -3 -6 -6z"/>
<path d="M3060 7115 c-7 -9 -11 -18 -8 -20 8 -9 36 5 42 21 7 19 -18 18 -34
-1z"/>
<path d="M6212 7056 c-56 -59 -66 -78 -27 -52 13 9 30 16 37 16 14 0 58 59 58
78 0 22 -17 12 -68 -42z"/>
<path d="M2170 6725 c-17 -21 -9 -27 13 -10 10 7 14 16 9 19 -5 3 -15 -1 -22
-9z"/>
<path d="M2218 6646 c-15 -24 -52 -71 -83 -105 -34 -38 -52 -67 -49 -76 7 -17
44 -20 44 -4 0 7 10 21 23 33 12 12 36 42 54 66 18 25 42 57 54 72 19 23 20
30 9 43 -18 21 -22 19 -52 -29z"/>
<path d="M2448 6663 c7 -3 16 -2 19 1 4 3 -2 6 -13 5 -11 0 -14 -3 -6 -6z"/>
<path d="M2500 6625 c19 -14 36 -25 40 -25 3 0 24 -18 47 -40 l42 -41 -22 -41
c-12 -22 -38 -59 -58 -82 -19 -22 -59 -75 -88 -117 -28 -43 -61 -79 -71 -82
-20 -5 -102 39 -170 91 -19 15 -46 33 -60 40 -13 7 -43 27 -65 43 -90 66 -118
81 -126 67 -22 -34 -20 -36 231 -200 85 -56 162 -103 171 -105 9 -3 27 9 43
29 15 18 47 58 72 88 67 82 138 190 153 233 l13 38 -56 51 c-55 50 -98 78
-119 78 -6 0 4 -11 23 -25z"/>
<path d="M7812 6600 c0 -14 2 -19 5 -12 2 6 2 18 0 25 -3 6 -5 1 -5 -13z"/>
<path d="M7616 6545 c-3 -26 -6 -70 -6 -97 0 -41 4 -53 27 -73 27 -22 27 -24
10 -43 -16 -17 -16 -20 -2 -32 8 -7 14 -24 13 -39 -3 -22 1 -26 21 -23 31 3
31 2 38 46 4 28 1 44 -15 65 -14 19 -17 32 -11 44 7 11 5 24 -6 40 -8 13 -13
32 -9 41 4 9 0 24 -9 34 -9 10 -22 33 -30 51 l-14 33 -7 -47z"/>
<path d="M8398 6536 c-9 -12 -29 -29 -45 -37 -103 -52 -134 -82 -99 -95 33
-13 156 73 156 108 0 29 20 11 67 -63 38 -58 53 -72 53 -46 0 24 -93 158 -109
157 -3 0 -14 -11 -23 -24z"/>
<path d="M7714 6504 c-5 -19 -2 -29 10 -36 9 -5 16 -22 16 -38 0 -17 5 -30 10
-30 6 0 10 -9 10 -19 0 -11 5 -23 10 -26 6 -3 10 -17 10 -31 0 -13 5 -24 11
-24 7 0 9 9 5 23 -9 28 -13 49 -21 110 -8 66 -21 97 -40 97 -8 0 -18 -12 -21
-26z"/>
<path d="M2486 6454 c-4 -9 -4 -19 -1 -22 6 -6 35 18 35 29 0 16 -28 10 -34
-7z"/>
<path d="M8161 6414 c0 -11 3 -14 6 -6 3 7 2 16 -1 19 -3 4 -6 -2 -5 -13z"/>
<path d="M8180 6383 c0 -12 3 -23 8 -25 4 -1 15 -19 24 -38 59 -119 88 -140
142 -104 34 21 33 47 -1 74 l-28 22 -3 -22 c-2 -11 -11 -24 -19 -27 -18 -7
-45 21 -94 96 -22 34 -29 40 -29 24z"/>
<path d="M1885 6080 c3 -5 13 -10 21 -10 8 0 14 5 14 10 0 6 -9 10 -21 10 -11
0 -17 -4 -14 -10z"/>
<path d="M1940 6061 c0 -5 7 -14 15 -21 20 -17 19 -37 -4 -52 -22 -14 -17 -38
9 -38 22 0 49 30 52 59 2 17 -5 29 -27 42 -34 20 -45 23 -45 10z"/>
<path d="M5724 5987 c-11 -17 -27 -50 -35 -72 -7 -22 -23 -56 -34 -75 -11 -19
-25 -43 -30 -52 -6 -9 -38 -57 -72 -106 -34 -49 -76 -115 -94 -148 -18 -32
-46 -77 -63 -98 -46 -59 -91 -144 -81 -154 3 -3 20 12 39 34 46 52 289 420
307 464 8 19 29 63 46 97 28 53 54 143 42 143 -2 0 -13 -15 -25 -33z"/>
<path d="M1612 5968 c2 -17 25 -31 118 -68 63 -26 151 -65 195 -88 90 -48 118
-53 113 -21 -3 23 -22 35 -175 108 -119 58 -206 91 -234 91 -15 0 -20 -6 -17
-22z"/>
<path d="M2350 5925 c-7 -8 -9 -15 -6 -15 4 0 14 7 22 15 9 8 11 15 6 15 -5 0
-15 -7 -22 -15z"/>
<path d="M2063 5883 c9 -9 19 -14 23 -11 10 10 -6 28 -24 28 -15 0 -15 -1 1
-17z"/>
<path d="M2260 5829 c0 -5 5 -7 10 -4 6 3 10 8 10 11 0 2 -4 4 -10 4 -5 0 -10
-5 -10 -11z"/>
<path d="M4220 5553 c-50 -8 -113 -45 -161 -93 -49 -49 -62 -80 -34 -80 8 0
15 -7 15 -17 0 -16 65 45 136 128 17 20 41 40 53 44 11 3 21 11 21 16 0 5 -1
8 -2 8 -2 -1 -14 -4 -28 -6z"/>
<path d="M2012 5345 c0 -16 2 -22 5 -12 2 9 2 23 0 30 -3 6 -5 -1 -5 -18z"/>
<path d="M3991 5304 c0 -11 3 -14 6 -6 3 7 2 16 -1 19 -3 4 -6 -2 -5 -13z"/>
<path d="M1987 5233 c-4 -37 -7 -104 -7 -149 0 -78 6 -108 62 -299 37 -130 55
-220 47 -240 -12 -32 -11 -34 22 -22 26 10 30 16 25 39 -7 38 6 42 40 13 33
-28 51 -31 73 -11 13 11 27 12 66 5 39 -7 280 -26 395 -30 22 -1 70 19 70 29
0 18 -92 91 -191 152 -57 35 -106 67 -109 71 -9 11 -158 99 -170 99 -6 0 -16
11 -22 25 -13 28 -28 33 -28 9 0 -11 -5 -14 -16 -10 -9 3 -19 6 -24 6 -5 0
-23 12 -40 26 -17 15 -33 25 -35 22 -3 -2 -6 -25 -7 -51 -4 -62 -24 -59 -59 9
-52 100 -69 164 -69 260 0 112 -15 141 -23 47z"/>
<path d="M5655 4960 c-3 -5 -1 -10 4 -10 6 0 11 5 11 10 0 6 -2 10 -4 10 -3 0
-8 -4 -11 -10z"/>
<path d="M5627 4923 c-12 -12 -7 -22 8 -17 8 4 15 10 15 15 0 11 -14 12 -23 2z"/>
<path d="M2817 4833 c-26 -26 53 -186 100 -204 34 -13 53 -11 47 4 -6 17 8 28
66 52 25 10 61 30 80 44 19 14 46 31 60 37 21 9 14 10 -35 6 -61 -4 -102 5
-215 47 -56 21 -91 26 -103 14z"/>
<path d="M5525 4753 c-16 -27 -32 -52 -34 -58 -2 -5 -10 -16 -18 -23 -13 -14
-18 -32 -7 -32 8 0 25 20 60 70 47 68 57 90 42 90 -7 0 -27 -21 -43 -47z"/>
<path d="M5430 4615 c0 -9 -7 -18 -15 -21 -9 -4 -27 -26 -41 -50 -14 -25 -34
-50 -43 -57 -9 -6 -30 -30 -46 -52 -17 -22 -43 -54 -60 -70 -38 -39 -171 -190
-182 -208 -4 -7 -21 -23 -38 -36 -16 -12 -55 -51 -85 -85 -73 -84 -136 -136
-166 -136 -30 0 -30 9 2 81 15 33 24 63 19 67 -11 11 -148 -139 -206 -226 -29
-42 -64 -91 -78 -108 -14 -17 -46 -59 -71 -94 -25 -35 -105 -126 -177 -203
-73 -77 -133 -145 -133 -151 -1 -26 -77 -162 -101 -179 -24 -17 -31 -18 -65
-6 -45 15 -86 44 -77 52 3 4 0 14 -7 22 -17 20 -17 130 0 181 36 112 224 444
274 485 10 8 17 22 14 30 -7 18 -223 -203 -280 -286 -23 -33 -67 -89 -99 -125
-32 -36 -85 -105 -118 -155 -33 -50 -84 -109 -113 -134 -52 -42 -54 -43 -116
-39 -59 4 -65 6 -102 47 -22 24 -40 47 -40 51 0 11 -82 91 -88 86 -3 -3 0 -23
6 -45 7 -21 12 -41 12 -45 0 -11 -31 22 -72 77 -41 54 -99 102 -118 95 -7 -2
2 -23 23 -53 19 -28 37 -62 41 -75 42 -145 128 -281 259 -406 75 -73 91 -83
141 -95 44 -10 68 -10 107 -1 28 7 84 12 125 12 64 0 84 5 137 31 79 40 208
158 307 279 43 52 90 107 106 121 29 26 117 120 164 175 28 33 132 189 205
309 10 17 128 140 262 275 134 135 260 270 280 300 20 30 40 57 45 58 4 2 8
10 8 17 0 7 13 26 28 43 15 16 44 51 63 77 18 25 43 56 54 68 60 65 88 117 65
117 -5 0 -10 -7 -10 -15z"/>
<path d="M8967 4603 c-2 -5 -2 -25 0 -45 l5 -38 20 25 c15 19 17 29 8 45 -11
20 -25 26 -33 13z"/>
<path d="M8142 4250 c0 -14 2 -19 5 -12 2 6 2 18 0 25 -3 6 -5 1 -5 -13z"/>
<path d="M8162 4210 c0 -14 2 -19 5 -12 2 6 2 18 0 25 -3 6 -5 1 -5 -13z"/>
<path d="M8383 4113 c-4 -10 -17 -35 -30 -56 -13 -21 -21 -46 -18 -55 10 -30
51 -69 78 -74 26 -5 27 -4 27 46 0 105 -37 194 -57 139z"/>
<path d="M8240 4060 c0 -5 5 -10 11 -10 5 0 7 5 4 10 -3 6 -8 10 -11 10 -2 0
-4 -4 -4 -10z"/>
<path d="M1820 4050 c0 -5 5 -10 10 -10 6 0 10 5 10 10 0 6 -4 10 -10 10 -5 0
-10 -4 -10 -10z"/>
<path d="M8260 4026 c0 -9 5 -16 10 -16 6 0 10 4 10 9 0 6 -4 13 -10 16 -5 3
-10 -1 -10 -9z"/>
<path d="M2540 4016 c0 -3 16 -39 35 -80 19 -42 35 -80 35 -85 0 -15 58 -121
88 -160 15 -20 41 -56 57 -81 54 -83 61 -88 104 -77 35 9 44 7 102 -24 79 -44
97 -50 104 -40 6 10 -61 87 -252 288 -80 83 -158 169 -174 191 -29 40 -69 72
-89 72 -5 0 -10 -2 -10 -4z"/>
<path d="M8286 3987 c3 -10 9 -15 12 -12 3 3 0 11 -7 18 -10 9 -11 8 -5 -6z"/>
<path d="M9117 3958 c-9 -45 -8 -108 3 -108 6 0 10 27 10 65 0 67 -4 82 -13
43z"/>
<path d="M8317 3934 c9 -15 19 -22 21 -15 2 6 -3 18 -11 26 -24 24 -29 18 -10
-11z"/>
<path d="M8345 3890 c3 -5 8 -10 11 -10 2 0 4 5 4 10 0 6 -5 10 -11 10 -5 0
-7 -4 -4 -10z"/>
<path d="M8380 3835 c0 -3 13 -26 30 -53 29 -45 44 -37 18 10 -21 36 -48 61
-48 43z"/>
<path d="M9095 3779 c-4 -26 -3 -45 4 -52 8 -8 11 3 11 41 0 63 -6 67 -15 11z"/>
<path d="M2065 3710 c-3 -5 -35 -10 -70 -10 -35 0 -66 -4 -69 -8 -5 -9 64 -48
94 -53 31 -6 70 11 70 31 0 11 5 20 10 20 6 0 10 7 10 15 0 17 -35 21 -45 5z"/>
<path d="M9074 3676 c-3 -8 -1 -23 5 -33 9 -15 10 -13 11 15 0 34 -7 42 -16
18z"/>
<path d="M3157 3584 c-6 -61 0 -107 19 -164 4 -12 7 -12 16 3 13 24 0 190 -16
213 -11 14 -14 6 -19 -52z"/>
<path d="M2062 3598 c-18 -18 -14 -28 11 -28 29 0 37 7 30 26 -6 17 -25 18
-41 2z"/>
<path d="M2142 3534 c-1 -16 -9 -39 -17 -50 -8 -10 -15 -29 -15 -42 0 -13 -11
-38 -24 -55 -31 -41 -136 -245 -136 -264 0 -10 14 -3 40 21 22 20 44 36 48 36
4 0 25 16 46 36 21 20 44 33 52 30 8 -3 14 1 14 10 0 11 6 15 20 11 18 -5 20
0 20 46 -1 46 -2 50 -14 34 -13 -16 -14 -16 -19 4 -7 25 -27 16 -27 -12 0 -10
-4 -19 -10 -19 -5 0 -10 -7 -10 -16 0 -8 -7 -22 -15 -30 -8 -8 -21 -25 -30
-36 -8 -12 -17 -19 -20 -16 -3 3 6 19 20 36 14 16 25 37 25 46 0 9 5 16 10 16
6 0 10 9 10 19 0 21 39 74 40 54 0 -7 5 -13 10 -13 6 0 10 25 10 55 0 30 -4
55 -9 55 -6 0 -12 17 -14 38 -3 32 -4 33 -5 6z"/>
<path d="M9050 3530 c0 -11 5 -20 10 -20 6 0 10 9 10 20 0 11 -4 20 -10 20 -5
0 -10 -9 -10 -20z"/>
<path d="M1972 3518 c-17 -17 -15 -58 3 -58 10 0 15 10 15 28 0 18 3 23 9 14
12 -19 65 -11 69 11 3 14 -4 17 -40 17 -24 0 -49 -5 -56 -12z"/>
<path d="M2037 3430 c-15 -9 -41 -29 -57 -43 -36 -33 -40 -33 -41 -4 -1 20 -2
19 -15 -8 -7 -16 -11 -41 -8 -54 3 -12 0 -38 -6 -57 -8 -23 -8 -39 -1 -51 9
-16 10 -16 11 -2 0 9 7 22 15 29 8 7 15 22 15 35 0 12 10 30 21 41 12 10 35
39 52 64 17 25 35 48 41 52 23 16 -1 14 -27 -2z"/>
<path d="M2188 3190 c-18 -17 -76 -52 -128 -77 -114 -56 -106 -49 -90 -68 21
-25 58 -17 120 25 32 22 63 40 67 40 18 0 83 63 83 80 0 32 -17 32 -52 0z"/>
<path d="M2264 3094 c4 -19 10 -42 13 -50 3 -8 0 -14 -6 -14 -6 0 -11 8 -11
18 0 22 -19 42 -40 42 -9 0 -37 -19 -63 -43 -34 -30 -47 -50 -47 -69 0 -15 -4
-30 -10 -33 -5 -3 -10 -13 -10 -21 0 -7 -16 -31 -35 -51 -36 -38 -40 -49 -29
-77 9 -23 30 -20 103 17 73 36 131 88 131 117 0 30 -22 24 -60 -15 -35 -36
-86 -65 -115 -65 -15 0 -15 2 -1 15 8 8 18 15 23 15 13 0 66 53 93 93 28 41
44 46 59 20 9 -16 11 -15 19 7 9 24 11 22 37 -33 15 -32 24 -61 21 -65 -4 -4
-12 1 -17 11 -14 25 -26 14 -27 -27 -1 -26 3 -35 18 -39 23 -6 30 0 30 25 0
10 5 18 10 18 6 0 10 -8 10 -18 0 -10 5 -23 11 -29 17 -17 3 -43 -23 -43 -13
0 -34 -9 -48 -20 -14 -11 -29 -20 -33 -20 -5 0 -27 -13 -50 -28 -23 -16 -57
-34 -74 -41 -38 -15 -40 -22 -15 -44 27 -25 54 -21 97 13 21 17 41 30 46 30 5
0 31 20 59 45 28 25 55 45 60 45 27 0 -12 156 -42 168 -4 2 -8 9 -8 16 0 7 -6
26 -14 42 -8 16 -24 50 -35 77 -26 56 -36 61 -27 11z m-87 -109 c-24 -23 -30
-18 -10 9 10 13 19 20 21 15 2 -5 -3 -16 -11 -24z"/>
<path d="M2636 2782 c-2 -4 -10 -36 -16 -72 -25 -131 -52 -169 -81 -113 -8 15
-16 30 -19 33 -3 3 -15 18 -27 33 l-22 28 -6 -45 c-4 -25 -5 -53 -1 -61 3 -9
-1 -32 -9 -52 -8 -19 -15 -44 -15 -53 0 -10 -12 -32 -26 -49 -41 -49 -9 -70
47 -30 16 11 29 27 29 35 0 27 28 44 72 44 24 0 48 4 55 8 27 17 69 201 59
255 -6 33 -30 55 -40 39z"/>
<path d="M1740 2560 c0 -5 5 -10 10 -10 6 0 10 5 10 10 0 6 -4 10 -10 10 -5 0
-10 -4 -10 -10z"/>
<path d="M8490 1909 c0 -5 5 -7 10 -4 6 3 10 8 10 11 0 2 -4 4 -10 4 -5 0 -10
-5 -10 -11z"/>
<path d="M8391 1781 c-12 -12 -21 -26 -21 -31 0 -6 12 1 26 15 14 14 24 29 21
31 -3 3 -15 -4 -26 -15z"/>
<path d="M1900 1712 c0 -10 5 -23 12 -30 15 -15 48 -16 48 -1 0 11 -40 48 -52
49 -5 0 -8 -8 -8 -18z"/>
<path d="M2104 1508 c-4 -6 0 -16 9 -23 10 -7 17 -17 17 -22 0 -6 13 -13 30
-16 20 -4 28 -11 24 -20 -6 -17 18 -28 36 -17 9 5 -3 22 -41 59 -58 54 -64 57
-75 39z"/>
<path d="M2235 1390 c3 -5 8 -10 11 -10 2 0 4 5 4 10 0 6 -5 10 -11 10 -5 0
-7 -4 -4 -10z"/>
<path d="M2343 1283 c9 -9 20 -13 24 -9 4 4 1 11 -7 16 -25 16 -35 11 -17 -7z"/>
<path d="M2417 1219 c-9 -6 -15 -14 -12 -20 10 -15 22 -10 28 11 3 11 4 20 4
20 -1 0 -10 -5 -20 -11z"/>
<path d="M2441 1197 c-16 -16 -14 -26 12 -48 20 -17 47 -25 47 -14 0 2 -11 20
-24 39 -17 26 -26 32 -35 23z"/>
<path d="M7707 1143 c-12 -12 -7 -22 8 -17 8 4 15 10 15 15 0 11 -14 12 -23 2z"/>
<path d="M2590 1070 c0 -17 41 -33 53 -21 8 8 5 11 -11 11 -12 0 -22 5 -22 10
0 6 -4 10 -10 10 -5 0 -10 -4 -10 -10z"/>
<path d="M4714 832 c-37 -4 -69 -34 -60 -57 10 -28 77 -16 96 17 18 33 7 45
-36 40z"/>
<path d="M6856 1077 l-39 -42 47 -3 c69 -5 96 26 62 71 -19 24 -26 21 -70 -26z"/>
<path d="M6897 936 c16 -22 53 -46 70 -46 4 0 -10 16 -31 35 -44 40 -65 46
-39 11z"/>
<path d="M5968 849 c-24 -14 -23 -25 5 -34 19 -7 17 -9 -15 -12 -46 -5 -47
-13 -9 -36 32 -19 65 -13 57 10 -4 8 4 23 16 33 19 15 20 20 9 34 -15 18 -38
20 -63 5z"/>
<path d="M5133 712 c-18 -11 -43 -92 -43 -140 0 -37 4 -45 33 -62 55 -34 100
-20 116 38 10 34 -14 151 -33 164 -14 10 -58 10 -73 0z"/>
</g>
</svg>
